<svg width="24" height="24" viewBox="0 0 24 24" fill="none" xmlns="http://www.w3.org/2000/svg">
<path d="M20.2501 14.4376C19.4047 14.4376 18.594 14.1018 17.9962 13.504C17.3984 12.9062 17.0626 12.0955 17.0626 11.2501V8.97198C17.0624 8.64364 16.9392 8.32729 16.7172 8.08536C16.4953 7.84343 16.1907 7.69348 15.8636 7.6651C13.5151 7.4776 11.9261 5.92323 11.8192 3.71073C11.8037 3.38523 11.6677 3.07712 11.4376 2.84635L10.6661 2.07479C10.4248 1.83091 10.0973 1.69181 9.75427 1.6876C9.41126 1.68339 9.08039 1.8144 8.83324 2.05229C8.83005 2.05596 8.8266 2.0594 8.82293 2.0626L2.82293 8.07385C2.70028 8.19624 2.60308 8.34169 2.53692 8.50184C2.47077 8.66198 2.43698 8.83363 2.43751 9.0069C2.43803 9.18016 2.47285 9.35161 2.53997 9.51135C2.60709 9.67109 2.70517 9.81596 2.82856 9.9376L12.8823 19.6782C13.004 19.8003 13.1487 19.8972 13.308 19.9632C13.4673 20.0291 13.638 20.0629 13.8104 20.0626H22.5001C22.8482 20.0626 23.1821 19.9243 23.4282 19.6782C23.6743 19.432 23.8126 19.0982 23.8126 18.7501V18.0001C23.8126 17.0553 23.4373 16.1491 22.7692 15.481C22.1011 14.8129 21.195 14.4376 20.2501 14.4376ZM22.6876 18.7501C22.6876 18.7998 22.6679 18.8475 22.6327 18.8827C22.5975 18.9178 22.5498 18.9376 22.5001 18.9376H13.8104C13.7844 18.9372 13.7587 18.9316 13.7349 18.9212C13.7111 18.9107 13.6896 18.8956 13.6717 18.8767L3.61793 9.13416C3.60027 9.11661 3.58629 9.09571 3.57679 9.0727C3.56729 9.04968 3.56247 9.025 3.56262 9.0001C3.5626 8.97536 3.56748 8.95086 3.57697 8.92801C3.58646 8.90516 3.60038 8.88442 3.61793 8.86698L9.61137 2.86698C9.64708 2.83461 9.69388 2.81723 9.74206 2.81845C9.79024 2.81967 9.8361 2.8394 9.87012 2.87354L10.6407 3.64416C10.6738 3.67745 10.6932 3.72195 10.6951 3.76885C10.7636 5.16573 11.2961 6.38073 12.2354 7.2826C13.1429 8.15448 14.3664 8.67479 15.7736 8.78823C15.8191 8.79396 15.861 8.81623 15.8912 8.85079C15.9215 8.88535 15.938 8.9298 15.9376 8.97573V10.6876H14.2501C14.1009 10.6876 13.9579 10.7469 13.8524 10.8524C13.7469 10.9578 13.6876 11.1009 13.6876 11.2501C13.6876 11.3993 13.7469 11.5424 13.8524 11.6478C13.9579 11.7533 14.1009 11.8126 14.2501 11.8126H15.9751C16.0634 12.4858 16.3102 13.1283 16.6951 13.6876H15.0001C14.8509 13.6876 14.7079 13.7469 14.6024 13.8524C14.4969 13.9578 14.4376 14.1009 14.4376 14.2501C14.4376 14.3993 14.4969 14.5424 14.6024 14.6478C14.7079 14.7533 14.8509 14.8126 15.0001 14.8126H17.8229C18.5378 15.3018 19.3839 15.5633 20.2501 15.5626C20.8966 15.5626 21.5166 15.8194 21.9737 16.2765C22.4308 16.7336 22.6876 17.3536 22.6876 18.0001V18.7501ZM6.00012 17.0626H3.00012C2.85093 17.0626 2.70786 17.0033 2.60237 16.8978C2.49688 16.7924 2.43762 16.6493 2.43762 16.5001C2.43762 16.3509 2.49688 16.2078 2.60237 16.1024C2.70786 15.9969 2.85093 15.9376 3.00012 15.9376H6.00012C6.1493 15.9376 6.29238 15.9969 6.39787 16.1024C6.50336 16.2078 6.56262 16.3509 6.56262 16.5001C6.56262 16.6493 6.50336 16.7924 6.39787 16.8978C6.29238 17.0033 6.1493 17.0626 6.00012 17.0626ZM9.56262 19.5001C9.56262 19.6493 9.50336 19.7924 9.39787 19.8978C9.29238 20.0033 9.1493 20.0626 9.00012 20.0626H4.50012C4.35093 20.0626 4.20786 20.0033 4.10237 19.8978C3.99688 19.7924 3.93762 19.6493 3.93762 19.5001C3.93762 19.3509 3.99688 19.2078 4.10237 19.1024C4.20786 18.9969 4.35093 18.9376 4.50012 18.9376H9.00012C9.1493 18.9376 9.29238 18.9969 9.39787 19.1024C9.50336 19.2078 9.56262 19.3509 9.56262 19.5001Z" fill="white"/>
</svg>
