<svg width="27" height="26" viewBox="0 0 27 26" fill="none" xmlns="http://www.w3.org/2000/svg">
<path d="M13.5 0C10.9288 0 8.41543 0.762437 6.27759 2.1909C4.13975 3.61935 2.47351 5.64968 1.48957 8.02512C0.505633 10.4006 0.248189 13.0144 0.749797 15.5362C1.25141 18.0579 2.48953 20.3743 4.30762 22.1924C6.1257 24.0105 8.44208 25.2486 10.9638 25.7502C13.4856 26.2518 16.0995 25.9944 18.4749 25.0104C20.8503 24.0265 22.8807 22.3603 24.3091 20.2224C25.7376 18.0846 26.5 15.5712 26.5 13C26.4964 9.5533 25.1256 6.24882 22.6884 3.81163C20.2512 1.37445 16.9467 0.00363977 13.5 0ZM23.065 18.4275H18.8625L17.705 16.8325L19.2838 12.235L21.1588 11.6237L24.4388 14.14C24.2836 15.6491 23.8157 17.1092 23.065 18.4275ZM2.56501 14.14L5.83876 11.625L7.71376 12.2362L9.29251 16.8337L8.13751 18.4275H3.93501C3.18344 17.1094 2.71473 15.6492 2.55876 14.14H2.56501ZM3.81501 7.81L4.50376 10.135L2.58876 11.5962C2.75853 10.2704 3.17037 8.98705 3.80376 7.81H3.81501ZM11.125 16L9.69251 11.8313L13.5 9.21375L17.3075 11.8313L15.875 16H11.125ZM22.5088 10.135L23.1975 7.81C23.8309 8.98705 24.2427 10.2704 24.4125 11.5962L22.5088 10.135ZM21.7338 5.7125L20.545 9.7225L18.6613 10.3337L14.5 7.47375V5.52625L18.1363 3.02625C19.5058 3.66674 20.7297 4.58094 21.7325 5.7125H21.7338ZM15.7588 2.23375L13.5 3.78625L11.2413 2.23375C12.731 1.92208 14.2691 1.92208 15.7588 2.23375ZM8.86376 3.02625L12.5 5.52625V7.47375L8.34001 10.3337L6.45626 9.7225L5.26751 5.7125C6.27028 4.58094 7.49418 3.66674 8.86376 3.02625ZM5.39376 20.4275H7.94001L8.83626 22.9613C7.53478 22.3488 6.36541 21.4881 5.39376 20.4275ZM11.25 23.7663L9.76501 19.5888L10.9188 18H16.0813L17.235 19.5888L15.7563 23.7663C14.2683 24.0781 12.7318 24.0781 11.2438 23.7663H11.25ZM18.17 22.9613L19.0663 20.4275H21.6125C20.639 21.4887 19.4675 22.3495 18.1638 22.9613H18.17Z" fill="white"/>
</svg>
