<svg width="18" height="18" viewBox="0 0 18 18" fill="none" xmlns="http://www.w3.org/2000/svg">
<g id="CaretLeft">
<path id="Vector" d="M11.847 14.0288C12.0056 14.1873 12.0946 14.4023 12.0946 14.6265C12.0946 14.8506 12.0056 15.0656 11.847 15.2241C11.6885 15.3826 11.4736 15.4717 11.2494 15.4717C11.0252 15.4717 10.8102 15.3826 10.6517 15.2241L5.02673 9.59912C4.94807 9.52073 4.88566 9.42759 4.84307 9.32503C4.80049 9.22247 4.77856 9.11251 4.77856 9.00146C4.77856 8.89041 4.80049 8.78046 4.84307 8.6779C4.88566 8.57534 4.94807 8.48219 5.02673 8.40381L10.6517 2.77881C10.8102 2.6203 11.0252 2.53125 11.2494 2.53125C11.4736 2.53125 11.6885 2.6203 11.847 2.77881C12.0056 2.93732 12.0946 3.1523 12.0946 3.37646C12.0946 3.60063 12.0056 3.81561 11.847 3.97412L6.8204 9.00076L11.847 14.0288Z" fill="white"/>
</g>
</svg>
