<svg width="16" height="16" viewBox="0 0 16 16" fill="none" xmlns="http://www.w3.org/2000/svg">
<g clip-path="url(#clip0_637_2955)">
<path d="M15.7241 13.2406H0.275874C0.123531 13.2406 0 13.117 0 12.9647V3.03369C0 2.88134 0.123531 2.75781 0.275874 2.75781H15.7241C15.8765 2.75781 16 2.88134 16 3.03369V12.9647C16 13.1171 15.8764 13.2406 15.7241 13.2406Z" fill="#FF4B55"/>
<path d="M5.79308 2.75781H0.275874C0.123531 2.75781 0 2.88131 0 3.03366V12.9647C0 13.117 0.123531 13.2405 0.275874 13.2405H5.79311V2.75781H5.79308Z" fill="#73AF00"/>
<path d="M5.79605 10.4808C7.16606 10.4808 8.27667 9.37016 8.27667 8.00015C8.27667 6.63014 7.16606 5.51953 5.79605 5.51953C4.42604 5.51953 3.31543 6.63014 3.31543 8.00015C3.31543 9.37016 4.42604 10.4808 5.79605 10.4808Z" fill="#FFE15A"/>
<path d="M6.62295 7.17281V8.27625C6.62295 8.73259 6.2517 9.10384 5.79536 9.10384C5.33901 9.10384 4.96776 8.73259 4.96776 8.27625V7.17281H6.62295ZM6.89879 6.62109H4.69189C4.53955 6.62109 4.41602 6.74462 4.41602 6.89697V8.27628C4.41602 9.03803 5.03358 9.65559 5.79533 9.65559C6.55707 9.65559 7.17463 9.03803 7.17463 8.27628V6.89697C7.17467 6.74462 7.05114 6.62109 6.89879 6.62109Z" fill="#FF4B55"/>
<path d="M6.62296 7.17188V8.27531C6.62296 8.73165 6.25171 9.1029 5.79537 9.1029C5.33902 9.1029 4.96777 8.73165 4.96777 8.27531V7.17188H6.62296Z" fill="#F5F5F5"/>
<path d="M4.68969 7.03369C4.76588 7.03369 4.82763 6.97193 4.82763 6.89575C4.82763 6.81957 4.76588 6.75781 4.68969 6.75781C4.61351 6.75781 4.55176 6.81957 4.55176 6.89575C4.55176 6.97193 4.61351 7.03369 4.68969 7.03369Z" fill="#FFE15A"/>
<path d="M6.89673 7.03369C6.97291 7.03369 7.03466 6.97193 7.03466 6.89575C7.03466 6.81957 6.97291 6.75781 6.89673 6.75781C6.82055 6.75781 6.75879 6.81957 6.75879 6.89575C6.75879 6.97193 6.82055 7.03369 6.89673 7.03369Z" fill="#FFE15A"/>
<path d="M4.68969 8.1372C4.76588 8.1372 4.82763 8.07545 4.82763 7.99927C4.82763 7.92308 4.76588 7.86133 4.68969 7.86133C4.61351 7.86133 4.55176 7.92308 4.55176 7.99927C4.55176 8.07545 4.61351 8.1372 4.68969 8.1372Z" fill="#FFE15A"/>
<path d="M6.89673 8.1372C6.97291 8.1372 7.03466 8.07545 7.03466 7.99927C7.03466 7.92308 6.97291 7.86133 6.89673 7.86133C6.82055 7.86133 6.75879 7.92308 6.75879 7.99927C6.75879 8.07545 6.82055 8.1372 6.89673 8.1372Z" fill="#FFE15A"/>
<path d="M5.79321 7.03369C5.86939 7.03369 5.93115 6.97193 5.93115 6.89575C5.93115 6.81957 5.86939 6.75781 5.79321 6.75781C5.71703 6.75781 5.65527 6.81957 5.65527 6.89575C5.65527 6.97193 5.71703 7.03369 5.79321 7.03369Z" fill="#FFE15A"/>
<path d="M6.62134 9.15478C6.69752 9.15478 6.75927 9.09302 6.75927 9.01684C6.75927 8.94066 6.69752 8.87891 6.62134 8.87891C6.54515 8.87891 6.4834 8.94066 6.4834 9.01684C6.4834 9.09302 6.54515 9.15478 6.62134 9.15478Z" fill="#FFE15A"/>
<path d="M4.98169 9.15478C5.05787 9.15478 5.11962 9.09302 5.11962 9.01684C5.11962 8.94066 5.05787 8.87891 4.98169 8.87891C4.90551 8.87891 4.84375 8.94066 4.84375 9.01684C4.84375 9.09302 4.90551 9.15478 4.98169 9.15478Z" fill="#FFE15A"/>
<path d="M5.97356 7.92969V8.16725C5.97356 8.2655 5.89362 8.34544 5.79537 8.34544C5.69713 8.34544 5.61719 8.2655 5.61719 8.16725V7.92969H5.97356Z" fill="#41479B"/>
<path d="M5.97356 7.36719V7.60475C5.97356 7.703 5.89362 7.78294 5.79537 7.78294C5.69713 7.78294 5.61719 7.703 5.61719 7.60475V7.36719H5.97356Z" fill="#41479B"/>
<path d="M5.97356 8.5V8.73756C5.97356 8.83581 5.89362 8.91575 5.79537 8.91575C5.69713 8.91575 5.61719 8.83581 5.61719 8.73756V8.5H5.97356Z" fill="#41479B"/>
<path d="M6.45403 7.92969V8.16725C6.45403 8.2655 6.37409 8.34544 6.27584 8.34544C6.17759 8.34544 6.09766 8.2655 6.09766 8.16725V7.92969H6.45403Z" fill="#41479B"/>
<path d="M5.49407 7.92969V8.16725C5.49407 8.2655 5.41413 8.34544 5.31588 8.34544C5.21763 8.34544 5.1377 8.2655 5.1377 8.16725V7.92969H5.49407Z" fill="#41479B"/>
</g>
<defs>
<clipPath id="clip0_637_2955">
<rect width="16" height="16" fill="white"/>
</clipPath>
</defs>
</svg>
