<svg width="16" height="16" viewBox="0 0 16 16" fill="none" xmlns="http://www.w3.org/2000/svg">
<g clip-path="url(#clip0_637_3201)">
<path d="M15.7241 13.2406H0.275874C0.123531 13.2406 0 13.117 0 12.9647V3.03369C0 2.88134 0.123531 2.75781 0.275874 2.75781H15.7241C15.8765 2.75781 16 2.88134 16 3.03369V12.9647C16 13.1171 15.8764 13.2406 15.7241 13.2406Z" fill="#73AF00"/>
<path d="M7.85684 4.22577L2.0426 7.76485C1.86601 7.87232 1.86601 8.12863 2.0426 8.23613L7.85684 11.7753C7.94493 11.8289 8.05559 11.8289 8.14372 11.7753L13.958 8.23616C14.1346 8.1287 14.1346 7.87238 13.958 7.76488L8.14372 4.22577C8.05562 4.17214 7.94493 4.17214 7.85684 4.22577Z" fill="#FFE15A"/>
<path d="M7.99984 10.2067C9.21866 10.2067 10.2067 9.21866 10.2067 7.99984C10.2067 6.78102 9.21866 5.79297 7.99984 5.79297C6.78102 5.79297 5.79297 6.78102 5.79297 7.99984C5.79297 9.21866 6.78102 10.2067 7.99984 10.2067Z" fill="#41479B"/>
<path d="M6.1068 6.87137C6.00267 7.04569 5.92227 7.23512 5.86914 7.43628C7.09254 7.34422 8.90232 7.68647 10.0542 8.80418C10.1294 8.61228 10.179 8.40784 10.1976 8.19412C9.00823 7.19309 7.36389 6.83712 6.1068 6.87137Z" fill="#F5F5F5"/>
<path d="M8.09219 8.75344L8.15094 8.92962L8.33666 8.93106C8.36069 8.93125 8.37066 8.96194 8.35135 8.97622L8.20194 9.08656L8.25797 9.26362C8.26522 9.28656 8.2391 9.30553 8.21957 9.29153L8.06847 9.18353L7.91738 9.29153C7.89782 9.30553 7.87172 9.28656 7.87897 9.26362L7.935 9.08656L7.7856 8.97622C7.76625 8.96194 7.77622 8.93125 7.80025 8.93106L7.98597 8.92962L8.04472 8.75344C8.05232 8.73063 8.08457 8.73063 8.09219 8.75344Z" fill="#F5F5F5"/>
<path d="M8.81415 9.20855L8.83943 9.28437L8.91937 9.28499C8.92971 9.28506 8.93403 9.29827 8.92568 9.30443L8.86137 9.3519L8.88546 9.42812C8.88859 9.43799 8.87737 9.44615 8.86893 9.44012L8.8039 9.39365L8.73887 9.44012C8.73046 9.44615 8.71921 9.43799 8.72234 9.42812L8.74643 9.3519L8.68212 9.30443C8.67381 9.2983 8.67809 9.28509 8.68843 9.28499L8.76837 9.28437L8.79365 9.20855C8.79696 9.19871 8.81087 9.19871 8.81415 9.20855Z" fill="#F5F5F5"/>
<path d="M7.77997 8.41947L7.80525 8.49528L7.88519 8.49591C7.89553 8.49597 7.89985 8.50919 7.8915 8.51534L7.82719 8.56281L7.85128 8.63903C7.85441 8.64891 7.84319 8.65706 7.83475 8.65103L7.76972 8.60456L7.70469 8.65103C7.69628 8.65706 7.68503 8.64891 7.68816 8.63903L7.71225 8.56281L7.64794 8.51534C7.63963 8.50922 7.64391 8.496 7.65425 8.49591L7.73419 8.49528L7.75947 8.41947C7.76278 8.40966 7.77669 8.40966 7.77997 8.41947Z" fill="#F5F5F5"/>
<path d="M6.37958 8.32767L6.40486 8.40348L6.4848 8.40411C6.49514 8.40417 6.49946 8.41739 6.49111 8.42355L6.4268 8.47102L6.45089 8.54723C6.45402 8.55711 6.4428 8.56527 6.43436 8.55923L6.36933 8.51277L6.3043 8.55923C6.29589 8.56527 6.28464 8.55711 6.28777 8.54723L6.31186 8.47102L6.24755 8.42355C6.23924 8.41742 6.24352 8.4042 6.25386 8.40411L6.3338 8.40348L6.35908 8.32767C6.36243 8.31786 6.3763 8.31786 6.37958 8.32767Z" fill="#F5F5F5"/>
<path d="M7.55048 9.18312L7.57576 9.25893L7.6557 9.25955C7.66604 9.25962 7.67035 9.27284 7.66201 9.27899L7.5977 9.32646L7.62179 9.40268C7.62492 9.41255 7.6137 9.42071 7.60526 9.41468L7.54023 9.36821L7.4752 9.41468C7.46679 9.42071 7.45554 9.41255 7.45867 9.40268L7.48276 9.32646L7.41845 9.27899C7.41014 9.27287 7.41442 9.25965 7.42476 9.25955L7.5047 9.25893L7.52998 9.18312C7.53332 9.17334 7.54723 9.17334 7.55048 9.18312Z" fill="#F5F5F5"/>
<path d="M6.90644 8.2736L6.92713 8.3356L6.99251 8.33613C7.00094 8.3362 7.00447 8.34701 6.99769 8.35204L6.9451 8.39085L6.96482 8.45316C6.96738 8.46123 6.95819 8.46791 6.95129 8.46298L6.8981 8.42498L6.84491 8.46298C6.838 8.46791 6.82885 8.46123 6.83138 8.45316L6.8511 8.39085L6.7985 8.35204C6.79172 8.34701 6.79519 8.3362 6.80369 8.33613L6.86907 8.3356L6.88975 8.2736C6.89241 8.26557 6.90375 8.26557 6.90644 8.2736Z" fill="#F5F5F5"/>
<path d="M8.86997 6.99387L8.89584 7.07144L8.97759 7.07206C8.98819 7.07212 8.99256 7.08566 8.98403 7.09194L8.91828 7.1405L8.94294 7.21847C8.94616 7.22856 8.93463 7.2369 8.92603 7.23075L8.8595 7.18319L8.79297 7.23075C8.78434 7.23694 8.77288 7.22853 8.77606 7.21847L8.80072 7.1405L8.73497 7.09194C8.72644 7.08566 8.73084 7.07216 8.74141 7.07206L8.82316 7.07144L8.84903 6.99387C8.85241 6.98381 8.86663 6.98381 8.86997 6.99387Z" fill="#F5F5F5"/>
<path d="M6.46992 7.8947L6.49061 7.9567L6.55598 7.95723C6.56442 7.95729 6.56795 7.9681 6.56117 7.97313L6.50857 8.01194L6.52829 8.07426C6.53086 8.08232 6.52167 8.08901 6.51476 8.08407L6.46157 8.04607L6.40839 8.08407C6.40148 8.08901 6.39232 8.08232 6.39486 8.07426L6.41457 8.01194L6.36198 7.97313C6.3552 7.9681 6.35867 7.95732 6.36717 7.95723L6.43254 7.9567L6.45323 7.8947C6.45589 7.88666 6.46723 7.88666 6.46992 7.8947Z" fill="#F5F5F5"/>
<path d="M6.78515 8.76886L6.81647 8.8628L6.91546 8.86355C6.92828 8.86364 6.93359 8.87998 6.92328 8.88761L6.84362 8.94642L6.8735 9.0408C6.87737 9.05302 6.86346 9.06314 6.85303 9.05567L6.77246 8.99811L6.6919 9.05567C6.6815 9.06311 6.66756 9.05302 6.67143 9.0408L6.70131 8.94642L6.62165 8.88761C6.61134 8.87998 6.61665 8.86364 6.62947 8.86355L6.72847 8.8628L6.75978 8.76886C6.76393 8.75673 6.78112 8.75673 6.78515 8.76886Z" fill="#F5F5F5"/>
<path d="M9.21664 9.2284L9.23632 9.28749L9.2986 9.28796C9.30667 9.28802 9.31001 9.2983 9.30354 9.30309L9.25345 9.34009L9.27223 9.39946C9.27467 9.40715 9.26592 9.41349 9.25932 9.40881L9.20867 9.37259L9.15798 9.40881C9.15142 9.41349 9.14267 9.40715 9.14507 9.39946L9.16385 9.34009L9.11376 9.30309C9.10729 9.2983 9.11064 9.28802 9.1187 9.28796L9.18098 9.28749L9.20067 9.2284C9.20326 9.22074 9.2141 9.22074 9.21664 9.2284Z" fill="#F5F5F5"/>
<path d="M9.43427 8.77887L9.45955 8.85468L9.53949 8.8553C9.54983 8.85537 9.55414 8.86859 9.5458 8.87474L9.48149 8.92221L9.50558 8.99843C9.50871 9.00831 9.49749 9.01646 9.48905 9.01043L9.42402 8.96396L9.35899 9.01043C9.35058 9.01646 9.33933 9.00831 9.34246 8.99843L9.36655 8.92221L9.30224 8.87474C9.29393 8.86862 9.29821 8.8554 9.30855 8.8553L9.38849 8.85468L9.41377 8.77887C9.41708 8.76902 9.43099 8.76902 9.43427 8.77887Z" fill="#F5F5F5"/>
</g>
<defs>
<clipPath id="clip0_637_3201">
<rect width="16" height="16" fill="white"/>
</clipPath>
</defs>
</svg>
