<svg width="24" height="25" viewBox="0 0 24 25" fill="none" xmlns="http://www.w3.org/2000/svg">
<g id="Globe">
<path id="Vector" d="M12 2.75C10.0716 2.75 8.18657 3.32183 6.58319 4.39317C4.97982 5.46451 3.73013 6.98726 2.99218 8.76884C2.25422 10.5504 2.06114 12.5108 2.43735 14.4021C2.81355 16.2934 3.74215 18.0307 5.10571 19.3943C6.46928 20.7579 8.20656 21.6865 10.0979 22.0627C11.9892 22.4389 13.9496 22.2458 15.7312 21.5078C17.5127 20.7699 19.0355 19.5202 20.1068 17.9168C21.1782 16.3134 21.75 14.4284 21.75 12.5C21.7473 9.91498 20.7192 7.43661 18.8913 5.60872C17.0634 3.78084 14.585 2.75273 12 2.75ZM9.52782 16.25H14.4722C13.9688 17.9694 13.125 19.5191 12 20.7397C10.875 19.5191 10.0313 17.9694 9.52782 16.25ZM9.1875 14.75C8.93876 13.2603 8.93876 11.7397 9.1875 10.25H14.8125C15.0613 11.7397 15.0613 13.2603 14.8125 14.75H9.1875ZM3.75 12.5C3.74935 11.7392 3.85442 10.9819 4.06219 10.25H7.66782C7.44407 11.7417 7.44407 13.2583 7.66782 14.75H4.06219C3.85442 14.0181 3.74935 13.2608 3.75 12.5ZM14.4722 8.75H9.52782C10.0313 7.03062 10.875 5.48094 12 4.26031C13.125 5.48094 13.9688 7.03062 14.4722 8.75ZM16.3322 10.25H19.9378C20.3541 11.7211 20.3541 13.2789 19.9378 14.75H16.3322C16.5559 13.2583 16.5559 11.7417 16.3322 10.25ZM19.3472 8.75H16.0256C15.6429 7.24392 15.0001 5.81623 14.1263 4.53125C15.2427 4.83127 16.2839 5.36162 17.1831 6.08818C18.0823 6.81475 18.8194 7.72146 19.3472 8.75ZM9.87375 4.53125C8.9999 5.81623 8.35713 7.24392 7.97438 8.75H4.65282C5.18056 7.72146 5.91772 6.81475 6.81689 6.08818C7.71606 5.36162 8.75733 4.83127 9.87375 4.53125ZM4.65282 16.25H7.97438C8.35713 17.7561 8.9999 19.1838 9.87375 20.4688C8.75733 20.1687 7.71606 19.6384 6.81689 18.9118C5.91772 18.1852 5.18056 17.2785 4.65282 16.25ZM14.1263 20.4688C15.0001 19.1838 15.6429 17.7561 16.0256 16.25H19.3472C18.8194 17.2785 18.0823 18.1852 17.1831 18.9118C16.2839 19.6384 15.2427 20.1687 14.1263 20.4688Z" fill="white"/>
</g>
</svg>
