<svg width="16" height="17" viewBox="0 0 16 17" fill="none" xmlns="http://www.w3.org/2000/svg">
<g id="Play">
<path id="Vector" d="M15 8.94172C15.0004 9.11149 14.9569 9.27847 14.8736 9.42643C14.7904 9.57439 14.6703 9.6983 14.525 9.78609L5.52 15.2948C5.36818 15.3878 5.19429 15.4386 5.0163 15.4419C4.83831 15.4452 4.66266 15.4009 4.5075 15.3136C4.35382 15.2277 4.2258 15.1024 4.1366 14.9505C4.04741 14.7987 4.00026 14.6259 4 14.4498V3.43359C4.00026 3.25752 4.04741 3.0847 4.1366 2.93289C4.2258 2.78108 4.35382 2.65577 4.5075 2.56984C4.66266 2.48256 4.83831 2.43828 5.0163 2.44158C5.19429 2.44487 5.36818 2.49563 5.52 2.58859L14.525 8.09734C14.6703 8.18514 14.7904 8.30904 14.8736 8.457C14.9569 8.60497 15.0004 8.77195 15 8.94172Z" fill="white"/>
</g>
</svg>
