<svg width="24" height="25" viewBox="0 0 24 25" fill="none" xmlns="http://www.w3.org/2000/svg">
<g id="User">
<path id="Vector" d="M21.6486 20.3756C20.2208 17.9072 18.0205 16.1372 15.4527 15.2981C16.7229 14.542 17.7097 13.3898 18.2617 12.0185C18.8136 10.6473 18.9002 9.13272 18.5081 7.70749C18.116 6.28226 17.2668 5.02515 16.0911 4.12921C14.9154 3.23327 13.4781 2.74805 11.9999 2.74805C10.5217 2.74805 9.08438 3.23327 7.90866 4.12921C6.73294 5.02515 5.88382 6.28226 5.49171 7.70749C5.09959 9.13272 5.18616 10.6473 5.73813 12.0185C6.29009 13.3898 7.27692 14.542 8.54708 15.2981C5.97926 16.1362 3.77895 17.9062 2.35114 20.3756C2.29878 20.461 2.26405 20.556 2.249 20.655C2.23394 20.754 2.23888 20.855 2.2635 20.9521C2.28813 21.0492 2.33195 21.1404 2.39238 21.2202C2.45281 21.3001 2.52862 21.367 2.61535 21.4171C2.70207 21.4672 2.79795 21.4995 2.89733 21.5119C2.99671 21.5243 3.09757 21.5167 3.19397 21.4896C3.29037 21.4624 3.38034 21.4162 3.45859 21.3537C3.53684 21.2912 3.60178 21.2136 3.64958 21.1256C5.41583 18.0731 8.5377 16.2506 11.9999 16.2506C15.4621 16.2506 18.584 18.0731 20.3502 21.1256C20.398 21.2136 20.4629 21.2912 20.5412 21.3537C20.6194 21.4162 20.7094 21.4624 20.8058 21.4896C20.9022 21.5167 21.0031 21.5243 21.1024 21.5119C21.2018 21.4995 21.2977 21.4672 21.3844 21.4171C21.4712 21.367 21.547 21.3001 21.6074 21.2202C21.6678 21.1404 21.7116 21.0492 21.7363 20.9521C21.7609 20.855 21.7658 20.754 21.7508 20.655C21.7357 20.556 21.701 20.461 21.6486 20.3756ZM6.74989 9.5006C6.74989 8.46225 7.05779 7.44721 7.63467 6.58385C8.21155 5.7205 9.03149 5.04759 9.9908 4.65023C10.9501 4.25287 12.0057 4.1489 13.0241 4.35147C14.0425 4.55405 14.978 5.05406 15.7122 5.78829C16.4464 6.52251 16.9464 7.45797 17.149 8.47637C17.3516 9.49477 17.2476 10.5504 16.8503 11.5097C16.4529 12.469 15.78 13.2889 14.9166 13.8658C14.0533 14.4427 13.0382 14.7506 11.9999 14.7506C10.608 14.7491 9.27347 14.1955 8.28922 13.2113C7.30498 12.227 6.75138 10.8925 6.74989 9.5006Z" fill="white"/>
</g>
</svg>
