<svg width="96" height="96" viewBox="0 0 96 96" fill="none" xmlns="http://www.w3.org/2000/svg">
<g clip-path="url(#clip0_397_69104)">
<rect width="96.0019" height="96" rx="48" fill="#121212"/>
<path d="M30.2272 8.70282C29.8932 8.85443 29.5612 9.00988 29.2331 9.17109C21.8347 12.7522 15.6166 18.385 11.3177 25.3323L13.6668 25.7315C17.5588 19.736 22.9804 14.8268 29.377 11.5528C29.7263 11.3724 30.0775 11.1977 30.4325 11.0288C30.4249 10.2458 30.3558 9.46664 30.2272 8.70282ZM22.4604 80.4293C22.4604 80.2796 22.4661 80.1319 22.4757 79.9841C13.093 72.486 7.08217 60.9442 7.08217 47.9995C7.08217 41.91 8.41214 36.1333 10.7957 30.9401L9.1894 29.1936C6.42965 34.8763 4.88281 41.2575 4.88281 47.9995C4.88281 62.5428 12.0854 75.4069 23.1186 83.216C22.6983 82.3773 22.4604 81.4311 22.4604 80.4293ZM66.7948 9.18261C66.4455 9.0118 66.0924 8.84676 65.7373 8.68555C65.6087 9.44937 65.5396 10.2285 65.53 11.0116C65.9062 11.19 66.2804 11.3762 66.6508 11.5662C73.0378 14.8422 78.4517 19.7476 82.3399 25.7353L84.6871 25.3361C80.3939 18.3965 74.1835 12.7657 66.7948 9.18261ZM86.8231 29.2128L85.2148 30.9612C87.5946 36.1467 88.9207 41.9176 88.9207 47.9995C88.9207 60.9672 82.8888 72.5263 73.4773 80.0225C73.4869 80.1568 73.4907 80.2931 73.4907 80.4293C73.4907 81.4522 73.2431 82.4176 72.8056 83.2697C83.8848 75.4664 91.1201 62.5774 91.1201 47.9995C91.1201 41.2651 89.5751 34.8916 86.8231 29.2128ZM43.1431 90.4473C42.2718 89.7257 41.4178 88.9907 40.5849 88.2499C37.6044 87.7029 34.7391 86.8355 32.0235 85.6821C31.1081 86.2655 30.0314 86.6167 28.8761 86.6512C33.4187 88.9043 38.4162 90.3802 43.6958 90.9022C43.5097 90.7506 43.3254 90.5989 43.1431 90.4473ZM63.9487 85.6955C61.2427 86.8412 58.3869 87.7049 55.4199 88.248C54.587 88.9926 53.733 89.7276 52.8598 90.4512C52.6775 90.6028 52.4932 90.7525 52.309 90.9022C57.5847 90.3782 62.5822 88.9043 67.1249 86.6532C65.9599 86.6282 64.8718 86.2789 63.9487 85.6955Z" fill="#F0CB48"/>
<path d="M32.3453 7.82374C32.3453 7.82374 32.3318 7.82758 32.328 7.8295C32.3242 7.83142 32.3203 7.83334 32.3184 7.83334C32.3165 7.83526 32.3146 7.83526 32.3146 7.83526C32.4623 8.57797 32.5602 9.32836 32.6063 10.0845C33.2569 20.1985 25.1695 31.0033 13.4512 29.0055L16.3913 32.2028C18.4103 32.0281 20.3851 31.5407 22.2755 30.7999C31.2897 27.401 35.604 18.5269 34.9956 9.26695C36.9685 8.43595 39.1755 8.09434 41.5783 7.58385C41.5822 7.58385 41.5879 7.58385 41.5918 7.58385L43.225 5.14844C43.1712 5.15419 43.1156 5.15995 43.0618 5.16571C36.9915 5.84317 32.7368 7.65294 32.3453 7.82566V7.82374Z" fill="#F6F5E4"/>
<path d="M63.4195 10.071C63.4675 9.32065 63.5634 8.5741 63.7112 7.83522C63.7112 7.83522 63.6018 7.78724 63.3945 7.70088C63.3485 7.68361 63.2986 7.6625 63.2429 7.64139C62.1912 7.22109 59.4353 6.21737 55.6565 5.55335C55.4819 5.52264 55.3072 5.49193 55.1326 5.46314C54.7603 5.40173 54.3803 5.34416 53.9907 5.29042C53.6587 5.24628 53.3228 5.20406 52.9793 5.16568C52.9217 5.15992 52.8622 5.15224 52.8027 5.14648L54.4321 7.57614L54.4359 7.58189C56.8445 8.09239 59.0553 8.434 61.0321 9.26691C60.4237 18.5268 64.738 27.401 73.7522 30.7998C75.6426 31.5406 77.6174 32.0281 79.6364 32.2027L82.5765 29.0054C70.8524 31.0052 62.7631 20.1888 63.4195 10.071Z" fill="#F6F5E4"/>
<path d="M48 0C21.4907 0 0 21.4888 0 48C0 74.5112 21.4907 96 48 96C74.5093 96 96.0019 74.5093 96.0019 48C96.0019 21.4907 74.5112 0 48 0ZM48 93.555C22.8418 93.555 2.44692 73.1582 2.44692 48C2.44692 22.8418 22.8418 2.445 48 2.445C73.1582 2.445 93.555 22.8399 93.555 48C93.555 73.1601 73.1601 93.555 48 93.555Z" fill="#F6F5E4"/>
<path d="M28.6829 84.095C27.2781 84.095 26.1304 82.98 26.0786 81.5886C26.0786 81.554 26.0748 81.5214 26.0748 81.4869C26.0748 81.4523 26.0767 81.4178 26.0786 81.3851C26.1304 79.9918 27.2781 78.8787 28.6829 78.8787C29.5888 78.8787 30.3871 79.3412 30.8554 80.0417L32.5404 78.3567C31.8111 77.0171 30.391 76.1094 28.7578 76.1094C26.3799 76.1094 24.4512 78.0362 24.4512 80.414C24.4512 82.7919 26.3799 84.7206 28.7578 84.7206C30.7537 84.7206 32.431 83.3638 32.9204 81.5214L31.2028 82.1586C30.9072 83.2717 29.8901 84.095 28.6829 84.095Z" fill="#F6F5E4"/>
<path d="M67.2427 76.1094C65.6095 76.1094 64.1894 77.0171 63.4601 78.3567L65.1451 80.0417C65.6134 79.3412 66.4117 78.8787 67.3176 78.8787C68.7224 78.8787 69.87 79.9918 69.9219 81.3851C69.9238 81.4178 69.9257 81.4523 69.9257 81.4869C69.9257 81.5214 69.9238 81.554 69.9219 81.5886C69.87 82.98 68.7224 84.095 67.3176 84.095C66.1104 84.095 65.0933 83.2717 64.7977 82.1586L63.0801 81.5214C63.5695 83.3638 65.2468 84.7206 67.2427 84.7206C69.6206 84.7206 71.5493 82.7919 71.5493 80.414C71.5493 78.0362 69.6206 76.1094 67.2427 76.1094Z" fill="#F6F5E4"/>
<path d="M52.9498 47.1827L53.4526 45.49L50.6391 39.6769L54.0418 37.2338L47.9984 32.5875V32.5721L46.4093 31.3516C40.8821 31.7795 35.5948 33.3245 30.5244 37.8863L31.6414 44.6379L30.4707 47.507L33.4243 50.4951L34.2725 50.3224L33.6469 49.4262L40.078 48.9003L42.6477 47.4398L40.8495 51.1496L39.7863 51.6985L41.3427 56.149L43.0604 56.6633L43.1256 55.6903L44.0103 55.9475L44.1485 54.9553L44.9718 57.0375L46.4841 57.1469V55.9359H47.3689V57.1469H48.0041V57.1623H48.6393V55.9513H49.5241V57.1623L51.0364 57.0529L51.8597 54.9706L51.9979 55.9628L52.4873 55.8227L52.5084 55.7152L54.2932 52.2147L52.9555 47.1884L52.9498 47.1827ZM42.5172 45.536L37.5409 46.2135L33.4857 42.5057L34.76 36.7463H41.3005L45.3614 39.6615L42.5192 45.536H42.5172ZM50.5796 52.3817C49.5145 52.4508 48.6873 51.6332 48.0003 50.2955V50.2802C47.3132 51.6178 46.4861 52.4373 45.4209 52.3663C44.6072 52.3663 44.3289 51.5679 44.5861 50.8003L46.7375 44.3807H48.0003V44.3961H49.2631L51.4144 50.8156C51.6716 51.5852 51.3933 52.3817 50.5796 52.3817Z" fill="#F6F5E4"/>
<path d="M56.7301 34.3838L56.116 36.4949L49.4258 31.3516C50.6464 31.4398 51.8554 31.5819 53.0549 31.7987L56.7301 34.3857V34.3838Z" fill="#F6F5E4"/>
<path d="M65.4129 33.5405C60.5018 30.0361 54.2665 28.1496 48.3305 28.1381C41.9896 28.1246 35.6871 30.2376 30.5898 33.9973C32.4879 29.9651 39.6176 26.4492 48.1232 26.4492C56.6289 26.4492 63.2117 29.7406 65.4129 33.5405Z" fill="#F0CB48"/>
<path d="M52.0074 63.8877L44.5821 65.4634H44.5783L43.7281 65.4576L37.1953 60.6943V53.6836L37.5772 53.8966L38.0743 56.618L38.4044 56.6717L38.6615 54.9771H38.936L39.3486 57.4874L41.3023 58.9613H41.6305L41.7207 58.3395L43.0276 58.8596L43.02 59.6675L44.3039 59.7059V58.9613H45.392V59.798H47.077V59.0073H48.9252V59.798H50.6083V58.9613H51.6965V59.7059L52.0074 63.8877Z" fill="#F6F5E4"/>
<path d="M53.5877 17.0104C53.6088 16.9355 53.6242 16.8607 53.6242 16.7782C53.6242 16.3156 53.2499 15.9414 52.7874 15.9414C52.3249 15.9414 51.9507 16.3156 51.9507 16.7782C51.9507 16.9586 52.0082 17.1236 52.1061 17.2599L47.9991 19.4055L43.8921 17.2599C43.9881 17.1236 44.0476 16.9586 44.0476 16.7782C44.0476 16.3156 43.6733 15.9414 43.2108 15.9414C42.7483 15.9414 42.3741 16.3156 42.3741 16.7782C42.3741 16.8588 42.3894 16.9355 42.4105 17.0104C42.044 17.0987 41.7695 17.4268 41.7695 17.8222C41.7695 18.2847 42.1438 18.6589 42.6063 18.6589C42.9479 18.6589 43.2415 18.4517 43.372 18.158L46.8956 20.0254L44.2894 21.3803C44.2107 21.2978 44.1167 21.2306 44.0053 21.1826C43.5793 21.0041 43.0899 21.2057 42.9114 21.6336C42.7329 22.0597 42.9364 22.5491 43.3624 22.7275C43.4373 22.7582 43.514 22.7736 43.5908 22.7832C43.5313 23.1555 43.729 23.5355 44.0936 23.6871C44.5197 23.8656 45.0091 23.6622 45.1875 23.2361C45.3315 22.8926 45.224 22.5107 44.9572 22.2823L48.003 20.6184L51.0486 22.2823C50.78 22.5126 50.6744 22.8926 50.8183 23.2361C50.9968 23.6622 51.4862 23.8637 51.9123 23.6871C52.2769 23.5355 52.4746 23.1555 52.4151 22.7832C52.4919 22.7736 52.5686 22.7582 52.6435 22.7275C53.0695 22.5491 53.271 22.0597 53.0945 21.6336C52.916 21.2076 52.4266 21.0061 52.0005 21.1826C51.8892 21.2287 51.7933 21.2978 51.7165 21.3803L49.1103 20.0254L52.6339 18.158C52.7625 18.4536 53.0561 18.6589 53.3996 18.6589C53.8621 18.6589 54.2364 18.2847 54.2364 17.8222C54.2364 17.4268 53.9619 17.0987 53.5954 17.0104H53.5877Z" fill="#F6F5E4"/>
<path d="M52.2762 10.5887C52.211 9.45443 51.7101 8.44495 50.9405 7.71759C50.1709 6.99215 49.1346 6.54883 47.9984 6.54883C46.8623 6.54883 45.8259 6.99215 45.0564 7.71759C44.2868 8.44495 43.7859 9.45443 43.7206 10.5887C43.7206 10.6328 43.7168 10.6769 43.7168 10.7211C43.7168 10.8381 43.7264 10.9552 43.7456 11.0704L43.9529 12.3293V13.5326C43.9529 14.0028 44.3348 14.3847 44.805 14.3847H45.0525C45.3346 14.3847 45.563 14.6131 45.563 14.8952V15.114C45.563 15.4556 45.8394 15.7339 46.181 15.7339C46.2942 15.7339 46.394 15.78 46.4669 15.8529C46.5399 15.9258 46.5859 16.0256 46.5859 16.1388V16.538C46.5859 16.7165 46.7299 16.8605 46.9084 16.8605C47.0868 16.8605 47.2289 16.7165 47.2289 16.538V16.0141H47.5609V16.5188C47.5609 16.6973 47.7048 16.8413 47.8833 16.8413H48.1136C48.2921 16.8413 48.436 16.6973 48.436 16.5188V16.0141H48.768V16.538C48.768 16.7165 48.9119 16.8605 49.0885 16.8605C49.2651 16.8605 49.4109 16.7165 49.4109 16.538V16.1388C49.4109 16.0256 49.457 15.9258 49.5299 15.8529C49.6028 15.78 49.7026 15.7339 49.8159 15.7339C50.1575 15.7339 50.4338 15.4556 50.4338 15.114V14.8952C50.4338 14.6131 50.6622 14.3847 50.9443 14.3847H51.1919C51.6621 14.3847 52.044 14.0028 52.044 13.5326V12.3293L52.2513 11.0704C52.2705 10.9552 52.2801 10.8381 52.2801 10.7211C52.2801 10.6769 52.2781 10.6328 52.2762 10.5887ZM45.9488 13.3618C45.302 13.3618 44.7762 12.836 44.7762 12.1873C44.7762 11.5386 45.302 11.0147 45.9488 11.0147C46.5955 11.0147 47.1233 11.5406 47.1233 12.1873C47.1233 12.8341 46.5974 13.3618 45.9488 13.3618ZM47.2557 14.6611L47.9984 12.6479L48.7411 14.6611H47.2557ZM50.0481 13.3618C49.3994 13.3618 48.8736 12.836 48.8736 12.1873C48.8736 11.5386 49.3994 11.0147 50.0481 11.0147C50.6968 11.0147 51.2207 11.5406 51.2207 12.1873C51.2207 12.8341 50.6948 13.3618 50.0481 13.3618Z" fill="#F6F5E4"/>
<path d="M45.0464 75.8321C45.3553 76.0355 45.6586 76.2351 45.9599 76.4309C42.0889 78.8087 38.3427 80.8776 36.7095 81.5032L35.3066 80.1003C37.7344 79.0006 41.2407 77.1026 44.2307 75.2852C44.509 75.4732 44.7796 75.6556 45.0464 75.8321Z" fill="#F0CB48"/>
<path d="M76.5691 38.9766C76.4079 45.7704 72.94 52.2974 68.1056 58.1009H68.1018C63.8451 63.2136 58.529 67.762 53.4701 71.4333C52.879 71.8632 52.2918 72.2816 51.7083 72.6865C51.4454 72.5215 51.1882 72.3564 50.9388 72.1933L50.8217 72.1185C50.5165 71.9189 50.2114 71.7154 49.9062 71.512C50.5185 71.0725 51.1268 70.6234 51.7333 70.1648C60.1085 63.845 67.8081 55.9668 71.086 49.0579C69.6678 50.7966 68.048 52.3953 66.2229 53.8519C67.929 50.0251 69.6659 46.2406 69.9518 40.2969L76.5691 38.9766Z" fill="#F6F5E4"/>
<path d="M67.0605 62.5293L70.4306 65.4426C72.5647 61.1629 74.1979 56.6644 75.3148 51.9375L74.6585 52.4979C72.5762 56.1577 69.8875 59.5374 67.0605 62.5293Z" fill="#F6F5E4"/>
<path d="M63.5455 66.0078C62.6665 66.8235 61.7913 67.5988 60.9354 68.3281C58.5691 70.3489 56.1759 72.1894 53.8652 73.8341L61.2789 78.0294C61.9526 76.4519 63.2518 75.2044 64.8639 74.6018H64.8658C66.0212 73.0031 67.0997 71.3738 68.0958 69.7079L63.5455 66.0078ZM64.3074 70.4603C64.2594 70.4967 64.2383 70.5581 64.2575 70.6157L64.5127 71.4045C64.5549 71.5331 64.4072 71.6405 64.2978 71.5599L63.628 71.0725C63.58 71.0379 63.5128 71.0379 63.4648 71.0725L62.7931 71.5599C62.6838 71.6405 62.5379 71.5331 62.5782 71.4045L62.8354 70.6157C62.8546 70.5581 62.8334 70.4967 62.7855 70.4603L62.1138 69.9728C62.0044 69.8941 62.06 69.7214 62.1963 69.7214H63.0254C63.0849 69.7214 63.1386 69.683 63.1578 69.6254L63.413 68.8366C63.4553 68.7081 63.6376 68.7081 63.6779 68.8366L63.935 69.6254C63.9542 69.683 64.006 69.7214 64.0675 69.7214H64.8965C65.0309 69.7214 65.0865 69.8941 64.9791 69.9728L64.3074 70.4603Z" fill="#F6F5E4"/>
<path d="M60.9794 80.3382L60.776 80.5205L59.6821 81.5031C57.7783 80.7739 52.6177 78.0851 48.1211 75.2313C48.0808 75.2064 48.0405 75.1795 48.0002 75.1546C47.8121 75.0337 47.6221 74.9128 47.4302 74.7899L47.4264 74.7861L47.4187 74.7803H47.4168C47.0329 74.5328 46.6433 74.2775 46.2499 74.0165C40.195 69.9959 33.2169 64.486 27.899 58.1009H27.897H27.8951C23.0608 52.2974 19.5928 45.7704 19.4316 38.9766L26.0489 40.2969C26.3348 46.2406 28.0717 50.0251 29.7778 53.8519C27.9527 52.3953 26.3329 50.7966 24.9147 49.0579C28.6781 56.9859 38.2566 66.1883 48.0002 72.8497C48.5433 73.222 49.0883 73.5866 49.6315 73.9417C49.6699 73.9666 49.7102 73.9935 49.7505 74.0184C52.9727 76.1161 57.7629 78.8585 60.7818 80.248C60.8489 80.2806 60.9142 80.3113 60.9794 80.3401V80.3382Z" fill="#F6F5E4"/>
<path d="M28.9398 62.5293L25.5698 65.4426C23.4357 61.1629 21.8025 56.6644 20.6855 51.9375L21.3419 52.4979C23.4242 56.1577 26.1129 59.5374 28.9398 62.5293Z" fill="#F6F5E4"/>
<path d="M35.0666 68.3281C34.2107 67.5988 33.3355 66.8235 32.4566 66.0078L27.9062 69.7079C28.9234 71.4102 30.0269 73.0761 31.2149 74.7054C32.7329 75.3522 33.9478 76.5824 34.5753 78.1119L42.1368 73.8341C39.8261 72.1894 37.4329 70.3489 35.0666 68.3281ZM33.8883 69.9728L33.2185 70.4603C33.1686 70.4967 33.1494 70.5581 33.1667 70.6157L33.4238 71.4045C33.4641 71.5331 33.3183 71.6405 33.2089 71.5599L32.5391 71.0725C32.4892 71.0379 32.4239 71.0379 32.374 71.0725L31.7043 71.5599C31.5949 71.6405 31.4471 71.5331 31.4893 71.4045L31.7465 70.6157C31.7638 70.5581 31.7446 70.4967 31.6947 70.4603L31.0249 69.9728C30.9155 69.8941 30.9711 69.7214 31.1055 69.7214H31.9346C31.996 69.7214 32.0497 69.683 32.067 69.6254L32.3241 68.8366C32.3664 68.7081 32.5468 68.7081 32.589 68.8366L32.8442 69.6254C32.8634 69.683 32.9172 69.7214 32.9767 69.7214H33.8057C33.942 69.7214 33.9976 69.8941 33.8883 69.9728Z" fill="#F6F5E4"/>
<path d="M48.001 77.7246C44.8056 79.6975 42.0478 81.1637 40.1325 82.06C40.0826 82.0811 40.0327 82.1041 39.9847 82.1272C39.386 82.4054 38.8755 82.6223 38.4667 82.7797L38.1289 82.9083C40.1133 84.9291 42.2493 86.8847 44.5312 88.7751C45.4831 89.5658 46.4619 90.345 47.4656 91.1107H47.4675C47.6326 91.2393 47.7995 91.366 47.9665 91.4926L55.6067 83.271L48.001 77.7246ZM50.9681 84.0463L49.3483 85.2247C49.2984 85.2592 49.2792 85.3225 49.2965 85.3801L49.9164 87.2839C49.9586 87.4125 49.8108 87.52 49.7014 87.4394L48.0816 86.2629C48.0337 86.2284 47.9665 86.2284 47.9185 86.2629L46.2988 87.4394C46.1894 87.52 46.0416 87.4125 46.0838 87.2839L46.7018 85.3801C46.721 85.3225 46.6999 85.2592 46.6519 85.2247L45.0321 84.0463C44.9227 83.9676 44.9784 83.7949 45.1146 83.7949H47.1163C47.1758 83.7949 47.2295 83.7565 47.2487 83.6989L47.8667 81.7951C47.9089 81.6666 48.0912 81.6666 48.1315 81.7951L48.7514 83.6989C48.7706 83.7565 48.8224 83.7949 48.8839 83.7949H50.8855C51.0218 83.7949 51.0774 83.9676 50.9681 84.0463Z" fill="#F6F5E4"/>
<path d="M60.9788 80.3382L60.7754 80.5205V80.4898C60.7754 80.4073 60.7773 80.3267 60.7811 80.2461C60.8483 80.2787 60.9136 80.3094 60.9788 80.3382Z" fill="#F0CB48"/>
<path d="M65.5062 37.8998L64.6541 43.0565L62.2571 41.2141L61.2725 36.7598H56.4651L56.1177 36.493L56.7318 34.3819L53.0566 31.7949C57.3517 32.5683 61.4971 34.2898 65.5081 37.8978L65.5062 37.8998Z" fill="#F0CB48"/>
<path d="M65.5288 47.521L62.5752 50.5091L61.7289 50.3364L62.3545 49.4401L55.9234 48.9143L53.3537 47.4538L55.1519 51.1635L56.2151 51.7124L54.6587 56.1629L52.9411 56.6772L52.8758 55.7042L52.4805 55.8194L52.5016 55.71L54.2864 52.2114L52.9487 47.1832L53.4516 45.4905L53.4823 45.5519L58.4586 46.2294L61.7845 43.1875L64.6633 45.3984L65.5288 47.521Z" fill="#F0CB48"/>
<path d="M58.8068 53.6836V60.6943L52.274 65.4576L48 65.4922L44.582 65.4634L52.0072 63.8877L51.6963 59.7059L52.9803 59.6675L52.9726 58.8596L54.2795 58.3395L54.3697 58.9613H54.6998L56.6516 57.4874L57.0642 54.9771H57.3387L57.5958 56.6717L57.9259 56.618L58.4249 53.8966L58.8068 53.6836Z" fill="#F0CB48"/>
<path d="M60.6478 64.1836C60.2447 65.0088 54.5928 70.3172 51.7083 72.6855C51.4454 72.5204 51.1882 72.3554 50.9388 72.1922L50.8217 72.1174C50.5165 71.9178 50.2114 71.7144 49.9062 71.5109C52.3186 70.3978 60.6478 64.1836 60.6478 64.1836Z" fill="#F0CB48"/>
<path d="M57.8716 82.9083C55.8871 84.9291 53.7511 86.8847 51.4693 88.777C50.5174 89.5658 49.5386 90.345 48.5349 91.1107H48.5329C48.3679 91.2393 48.2009 91.366 48.034 91.4926C48.0225 91.485 48.0129 91.4754 48.0013 91.4677C47.9898 91.4754 47.9783 91.483 47.9668 91.4926L55.607 83.271L48.0013 77.7246C51.1967 79.6975 53.9546 81.1637 55.868 82.06C55.9179 82.0811 55.9678 82.1041 56.0157 82.1272C56.6145 82.4054 57.125 82.6223 57.5338 82.7797L57.8716 82.9083Z" fill="#F0CB48"/>
</g>
<defs>
<clipPath id="clip0_397_69104">
<rect width="96.0019" height="96" rx="48" fill="white"/>
</clipPath>
</defs>
</svg>
