<svg width="52" height="52" viewBox="0 0 52 52" fill="none" xmlns="http://www.w3.org/2000/svg">
<g clip-path="url(#clip0_583_940)">
<path d="M16.3728 4.71443C16.1919 4.79656 16.012 4.88076 15.8343 4.96808C11.8268 6.90787 8.45872 9.95893 6.13015 13.7221L7.40255 13.9383C9.51074 10.6908 12.4474 8.03161 15.9122 6.25816C16.1014 6.16044 16.2917 6.06584 16.484 5.97436C16.4798 5.55023 16.4424 5.12817 16.3728 4.71443ZM12.1657 43.5663C12.1657 43.4852 12.1689 43.4052 12.174 43.3251C7.09172 39.2636 3.83588 33.0118 3.83588 26.0001C3.83588 22.7016 4.55628 19.5726 5.84739 16.7596L4.9773 15.8136C3.48243 18.8917 2.64456 22.3482 2.64456 26.0001C2.64456 33.8778 6.54596 40.8458 12.5223 45.0757C12.2946 44.6214 12.1657 44.1089 12.1657 43.5663ZM36.1802 4.97432C35.991 4.8818 35.7997 4.7924 35.6074 4.70508C35.5378 5.11882 35.5003 5.54087 35.4951 5.965C35.6989 6.06168 35.9016 6.16252 36.1022 6.26543C39.5618 8.03993 42.4944 10.697 44.6005 13.9404L45.8719 13.7242C43.5464 9.96516 40.1824 6.91515 36.1802 4.97432ZM47.0289 15.824L46.1577 16.7711C47.4468 19.5799 48.1651 22.7058 48.1651 26.0001C48.1651 33.0243 44.8978 39.2855 39.7999 43.3459C39.8051 43.4187 39.8072 43.4925 39.8072 43.5663C39.8072 44.1204 39.6731 44.6433 39.4361 45.1048C45.4373 40.878 49.3564 33.8965 49.3564 26.0001C49.3564 22.3524 48.5196 18.9 47.0289 15.824ZM23.3689 48.9927C22.8969 48.6018 22.4343 48.2037 21.9832 47.8024C20.3688 47.5062 18.8167 47.0363 17.3458 46.4115C16.8499 46.7275 16.2667 46.9178 15.6409 46.9365C18.1015 48.1569 20.8085 48.9563 23.6683 49.2391C23.5674 49.157 23.4676 49.0748 23.3689 48.9927ZM34.6386 46.4188C33.1728 47.0394 31.626 47.5072 30.0188 47.8014C29.5677 48.2047 29.1051 48.6029 28.6321 48.9948C28.5333 49.0769 28.4335 49.158 28.3337 49.2391C31.1914 48.9553 33.8984 48.1569 36.359 46.9375C35.728 46.924 35.1386 46.7348 34.6386 46.4188Z" fill="#4BBB4F"/>
<path d="M17.5204 4.23818C17.5204 4.23818 17.5132 4.24026 17.5111 4.2413C17.509 4.24234 17.5069 4.24338 17.5059 4.24338C17.5048 4.24442 17.5038 4.24442 17.5038 4.24442C17.5838 4.64673 17.6369 5.05319 17.6618 5.46277C18.0142 10.9412 13.6336 16.7938 7.28613 15.7116L8.87871 17.4435C9.97231 17.3489 11.042 17.0849 12.066 16.6836C16.9487 14.8426 19.2856 10.0357 18.956 5.01992C20.0247 4.5698 21.2202 4.38476 22.5217 4.10824C22.5237 4.10824 22.5269 4.10824 22.5289 4.10824L23.4136 2.78906C23.3845 2.79218 23.3543 2.7953 23.3252 2.79842C20.0372 3.16538 17.7325 4.14567 17.5204 4.23922V4.23818Z" fill="#D3F6F6"/>
<path d="M34.3527 5.45458C34.3787 5.04811 34.4306 4.64373 34.5107 4.24351C34.5107 4.24351 34.4514 4.21752 34.3392 4.17074C34.3142 4.16138 34.2872 4.14995 34.257 4.13851C33.6874 3.91085 32.1946 3.36717 30.1477 3.00749C30.0531 2.99086 29.9585 2.97423 29.8639 2.95863C29.6623 2.92537 29.4564 2.89418 29.2454 2.86508C29.0656 2.84117 28.8836 2.8183 28.6976 2.7975C28.6664 2.79439 28.6342 2.79023 28.6019 2.78711L29.4845 4.10317L29.4866 4.10629C30.7912 4.38281 31.9888 4.56785 33.0595 5.01901C32.7299 10.0348 35.0668 14.8416 39.9496 16.6827C40.9735 17.0839 42.0432 17.348 43.1368 17.4426L44.7294 15.7107C38.3788 16.7939 33.9972 10.935 34.3527 5.45458Z" fill="#D3F6F6"/>
<path d="M26 0C11.6408 0 -3.05176e-05 11.6398 -3.05176e-05 26C-3.05176e-05 40.3602 11.6408 52 26 52C40.3592 52 52.001 40.3592 52.001 26C52.001 11.6408 40.3602 0 26 0ZM26 50.6756C12.3726 50.6756 1.32539 39.6274 1.32539 26C1.32539 12.3726 12.3726 1.32438 26 1.32438C39.6273 1.32438 50.6756 12.3716 50.6756 26C50.6756 39.6284 39.6284 50.6756 26 50.6756Z" fill="#D3F6F6"/>
<path d="M15.537 45.5521C14.776 45.5521 14.1544 44.9481 14.1263 44.1945C14.1263 44.1757 14.1242 44.1581 14.1242 44.1394C14.1242 44.1207 14.1253 44.1019 14.1263 44.0843C14.1544 43.3296 14.776 42.7266 15.537 42.7266C16.0276 42.7266 16.4601 42.9772 16.7137 43.3566L17.6265 42.4439C17.2314 41.7183 16.4622 41.2266 15.5775 41.2266C14.2895 41.2266 13.2448 42.2703 13.2448 43.5583C13.2448 44.8463 14.2895 45.891 15.5775 45.891C16.6586 45.891 17.5672 45.156 17.8323 44.1581L16.9019 44.5032C16.7418 45.1061 16.1908 45.5521 15.537 45.5521Z" fill="#D3F6F6"/>
<path d="M36.4235 41.2266C35.5388 41.2266 34.7696 41.7183 34.3745 42.4439L35.2873 43.3566C35.5409 42.9772 35.9733 42.7266 36.464 42.7266C37.225 42.7266 37.8466 43.3296 37.8747 44.0843C37.8757 44.1019 37.8767 44.1207 37.8767 44.1394C37.8767 44.1581 37.8757 44.1757 37.8747 44.1945C37.8466 44.9481 37.225 45.5521 36.464 45.5521C35.8101 45.5521 35.2592 45.1061 35.0991 44.5032L34.1687 44.1581C34.4338 45.156 35.3423 45.891 36.4235 45.891C37.7115 45.891 38.7562 44.8463 38.7562 43.5583C38.7562 42.2703 37.7115 41.2266 36.4235 41.2266Z" fill="#D3F6F6"/>
<path d="M28.681 25.5576L28.9533 24.6407L27.4293 21.492L29.2725 20.1686L25.9989 17.6519V17.6436L25.1382 16.9824C22.1443 17.2142 19.2804 18.0511 16.5339 20.5221L17.1389 24.1792L16.5048 25.7333L18.1046 27.3519L18.5641 27.2583L18.2252 26.7728L21.7087 26.488L23.1007 25.6969L22.1266 27.7063L21.5507 28.0037L22.3938 30.4144L23.3242 30.6929L23.3595 30.1659L23.8388 30.3052L23.9136 29.7678L24.3596 30.8957L25.1787 30.9549V30.299H25.658V30.9549H26.0021V30.9632H26.3461V30.3073H26.8254V30.9632L27.6445 30.904L28.0905 29.7761L28.1653 30.3135L28.4304 30.2376L28.4419 30.1794L29.4086 28.2833L28.6841 25.5607L28.681 25.5576ZM23.03 24.6657L20.3345 25.0326L18.1379 23.0242L18.8282 19.9046H22.3709L24.5706 21.4836L23.031 24.6657H23.03ZM27.3971 28.3737C26.8202 28.4112 26.3721 27.9683 26 27.2437V27.2354C25.6278 27.96 25.1798 28.4039 24.6028 28.3654C24.1621 28.3654 24.0113 27.933 24.1506 27.5171L25.316 24.0399H26V24.0482H26.684L27.8493 27.5255C27.9886 27.9423 27.8379 28.3737 27.3971 28.3737Z" fill="#D3F6F6"/>
<path d="M30.7288 18.6249L30.3962 19.7684L26.7723 16.9824C27.4335 17.0302 28.0884 17.1072 28.7381 17.2246L30.7288 18.6259V18.6249Z" fill="#D3F6F6"/>
<path d="M35.4317 18.1673C32.7716 16.2691 29.3941 15.2472 26.1788 15.241C22.7441 15.2337 19.3303 16.3782 16.5692 18.4147C17.5974 16.2306 21.4593 14.3262 26.0665 14.3262C30.6738 14.3262 34.2394 16.109 35.4317 18.1673Z" fill="#4BBB4F"/>
<path d="M28.1705 34.6054L24.1485 35.4588H24.1465L23.6859 35.4557L20.1473 32.8756V29.0781L20.3542 29.1935L20.6234 30.6676L20.8023 30.6967L20.9415 29.7788H21.0902L21.3137 31.1385L22.372 31.9369H22.5497L22.5986 31.6001L23.3065 31.8818L23.3024 32.3194L23.9978 32.3402V31.9369H24.5872V32.3901H25.4999V31.9618H26.501V32.3901H27.4127V31.9369H28.0021V32.3402L28.1705 34.6054Z" fill="#D3F6F6"/>
<path d="M29.0271 9.21379C29.0386 9.17325 29.0469 9.13271 29.0469 9.08801C29.0469 8.83748 28.8442 8.63477 28.5936 8.63477C28.3431 8.63477 28.1404 8.83748 28.1404 9.08801C28.1404 9.18572 28.1716 9.27512 28.2246 9.34893L26 10.5111L23.7753 9.34893C23.8273 9.27512 23.8595 9.18572 23.8595 9.08801C23.8595 8.83748 23.6568 8.63477 23.4063 8.63477C23.1558 8.63477 22.9531 8.83748 22.9531 9.08801C22.9531 9.13167 22.9614 9.17325 22.9728 9.21379C22.7743 9.26161 22.6256 9.43937 22.6256 9.65352C22.6256 9.90405 22.8283 10.1068 23.0789 10.1068C23.2639 10.1068 23.4229 9.99449 23.4936 9.83544L25.4022 10.8469L23.9905 11.5808C23.9479 11.5361 23.897 11.4997 23.8367 11.4738C23.6059 11.3771 23.3408 11.4862 23.2441 11.718C23.1475 11.9488 23.2577 12.2139 23.4884 12.3106C23.529 12.3272 23.5706 12.3355 23.6121 12.3407C23.5799 12.5424 23.687 12.7482 23.8845 12.8304C24.1153 12.927 24.3804 12.8168 24.477 12.5861C24.555 12.4 24.4968 12.1931 24.3523 12.0694L26.002 11.1681L27.6518 12.0694C27.5063 12.1942 27.4491 12.4 27.5271 12.5861C27.6237 12.8168 27.8888 12.926 28.1196 12.8304C28.3171 12.7482 28.4242 12.5424 28.392 12.3407C28.4335 12.3355 28.4751 12.3272 28.5157 12.3106C28.7464 12.2139 28.8556 11.9488 28.76 11.718C28.6633 11.4873 28.3982 11.3781 28.1674 11.4738C28.1071 11.4987 28.0551 11.5361 28.0136 11.5808L26.6019 10.8469L28.5105 9.83544C28.5801 9.99553 28.7392 10.1068 28.9252 10.1068C29.1758 10.1068 29.3785 9.90405 29.3785 9.65352C29.3785 9.43937 29.2298 9.26161 29.0313 9.21379H29.0271Z" fill="#D3F6F6"/>
<path d="M28.3171 5.73511C28.2818 5.12074 28.0105 4.57394 27.5936 4.17996C27.1767 3.78701 26.6154 3.54688 26 3.54688C25.3846 3.54688 24.8232 3.78701 24.4064 4.17996C23.9895 4.57394 23.7182 5.12074 23.6828 5.73511C23.6828 5.75902 23.6808 5.78293 23.6808 5.80684C23.6808 5.87025 23.686 5.93367 23.6963 5.99604L23.8086 6.67798V7.32977C23.8086 7.58446 24.0155 7.79133 24.2702 7.79133H24.4043C24.5571 7.79133 24.6808 7.91503 24.6808 8.06785V8.18635C24.6808 8.37139 24.8305 8.52213 25.0155 8.52213C25.0769 8.52213 25.1309 8.54707 25.1704 8.58658C25.2099 8.62608 25.2349 8.68014 25.2349 8.74147V8.95769C25.2349 9.05437 25.3128 9.13234 25.4095 9.13234C25.5062 9.13234 25.5831 9.05437 25.5831 8.95769V8.6739H25.763V8.9473C25.763 9.04398 25.8409 9.12194 25.9376 9.12194H26.0623C26.159 9.12194 26.237 9.04398 26.237 8.9473V8.6739H26.4168V8.95769C26.4168 9.05437 26.4948 9.13234 26.5904 9.13234C26.6861 9.13234 26.7651 9.05437 26.7651 8.95769V8.74147C26.7651 8.68014 26.79 8.62608 26.8295 8.58658C26.869 8.54707 26.9231 8.52213 26.9844 8.52213C27.1695 8.52213 27.3192 8.37139 27.3192 8.18635V8.06785C27.3192 7.91503 27.4429 7.79133 27.5957 7.79133H27.7298C27.9845 7.79133 28.1913 7.58446 28.1913 7.32977V6.67798L28.3036 5.99604C28.314 5.93367 28.3192 5.87025 28.3192 5.80684C28.3192 5.78293 28.3182 5.75902 28.3171 5.73511ZM24.8897 7.23725C24.5394 7.23725 24.2546 6.95242 24.2546 6.60105C24.2546 6.24969 24.5394 5.96589 24.8897 5.96589C25.2401 5.96589 25.5259 6.25073 25.5259 6.60105C25.5259 6.95138 25.2411 7.23725 24.8897 7.23725ZM25.5977 7.94102L26 6.85054L26.4023 7.94102H25.5977ZM27.1102 7.23725C26.7588 7.23725 26.474 6.95242 26.474 6.60105C26.474 6.24969 26.7588 5.96589 27.1102 5.96589C27.4616 5.96589 27.7454 6.25073 27.7454 6.60105C27.7454 6.95138 27.4605 7.23725 27.1102 7.23725Z" fill="#D3F6F6"/>
<path d="M24.4001 41.0756C24.5675 41.1858 24.7317 41.2939 24.895 41.3999C22.7982 42.6879 20.769 43.8085 19.8844 44.1474L19.1245 43.3875C20.4395 42.7919 22.3387 41.7637 23.9583 40.7793C24.1091 40.8812 24.2556 40.9799 24.4001 41.0756Z" fill="#4BBB4F"/>
<path d="M41.4746 21.1113C41.3873 24.7913 39.5088 28.3268 36.8902 31.4704H36.8881C34.5824 34.2397 31.7029 36.7034 28.9627 38.6921C28.6425 38.9249 28.3244 39.1516 28.0084 39.3709C27.8659 39.2815 27.7266 39.1921 27.5915 39.1037L27.5281 39.0632C27.3628 38.9551 27.1975 38.8449 27.0322 38.7347C27.3638 38.4966 27.6934 38.2534 28.0219 38.0049C32.5584 34.5817 36.7291 30.3144 38.5046 26.572C37.7364 27.5139 36.859 28.3798 35.8704 29.1688C36.7946 27.096 37.7354 25.046 37.8902 21.8265L41.4746 21.1113Z" fill="#D3F6F6"/>
<path d="M36.3247 33.87L38.1501 35.4481C39.3061 33.1299 40.1908 30.6932 40.7958 28.1328L40.4403 28.4364C39.3124 30.4188 37.856 32.2494 36.3247 33.87Z" fill="#D3F6F6"/>
<path d="M34.4203 35.7539C33.9442 36.1957 33.4701 36.6157 33.0065 37.0107C31.7247 38.1054 30.4284 39.1023 29.1768 39.9932L33.1926 42.2656C33.5574 41.4111 34.2612 40.7354 35.1344 40.409H35.1355C35.7613 39.543 36.3455 38.6605 36.885 37.7581L34.4203 35.7539ZM34.833 38.1656C34.807 38.1854 34.7955 38.2187 34.8059 38.2498L34.9442 38.6771C34.9671 38.7467 34.887 38.805 34.8278 38.7613L34.465 38.4973C34.439 38.4785 34.4026 38.4785 34.3766 38.4973L34.0128 38.7613C33.9535 38.805 33.8745 38.7467 33.8963 38.6771L34.0356 38.2498C34.046 38.2187 34.0346 38.1854 34.0086 38.1656L33.6448 37.9016C33.5855 37.859 33.6157 37.7654 33.6895 37.7654H34.1386C34.1708 37.7654 34.1999 37.7446 34.2103 37.7134L34.3485 37.2862C34.3714 37.2165 34.4702 37.2165 34.492 37.2862L34.6313 37.7134C34.6417 37.7446 34.6698 37.7654 34.703 37.7654H35.1521C35.2249 37.7654 35.255 37.859 35.1968 37.9016L34.833 38.1656Z" fill="#D3F6F6"/>
<path d="M33.0304 43.5156L32.9202 43.6143L32.3277 44.1466C31.2964 43.7515 28.5011 42.2951 26.0655 40.7493C26.0436 40.7358 26.0218 40.7213 26 40.7077C25.8981 40.6423 25.7952 40.5768 25.6912 40.5102L25.6891 40.5082L25.685 40.505H25.6839C25.476 40.3709 25.265 40.2327 25.0519 40.0913C21.7721 37.9135 17.9924 34.9289 15.1118 31.4704H15.1108H15.1097C12.4911 28.3268 10.6127 24.7913 10.5253 21.1113L14.1097 21.8265C14.2646 25.046 15.2054 27.096 16.1295 29.1688C15.1409 28.3798 14.2635 27.5139 13.4953 26.572C15.5338 30.8664 20.7222 35.851 26 39.4593C26.2942 39.6609 26.5894 39.8584 26.8836 40.0508C26.9044 40.0643 26.9262 40.0788 26.948 40.0923C28.6934 41.2286 31.2881 42.7141 32.9233 43.4667C32.9597 43.4844 32.995 43.501 33.0304 43.5166V43.5156Z" fill="#D3F6F6"/>
<path d="M15.6752 33.87L13.8498 35.4481C12.6938 33.1299 11.8092 30.6932 11.2042 28.1328L11.5597 28.4364C12.6876 30.4188 14.144 32.2494 15.6752 33.87Z" fill="#D3F6F6"/>
<path d="M18.9945 37.0107C18.5309 36.6157 18.0568 36.1957 17.5807 35.7539L15.116 37.7581C15.6669 38.6802 16.2647 39.5825 16.9081 40.4651C17.7304 40.8154 18.3884 41.4818 18.7284 42.3103L22.8242 39.9932C21.5726 39.1023 20.2763 38.1054 18.9945 37.0107ZM18.3562 37.9016L17.9934 38.1656C17.9664 38.1854 17.956 38.2187 17.9654 38.2498L18.1047 38.6771C18.1265 38.7467 18.0475 38.805 17.9882 38.7613L17.6254 38.4973C17.5984 38.4785 17.5631 38.4785 17.536 38.4973L17.1732 38.7613C17.114 38.805 17.0339 38.7467 17.0568 38.6771L17.1961 38.2498C17.2054 38.2187 17.1951 38.1854 17.168 38.1656L16.8052 37.9016C16.746 37.859 16.7761 37.7654 16.8489 37.7654H17.298C17.3312 37.7654 17.3603 37.7446 17.3697 37.7134L17.509 37.2862C17.5319 37.2165 17.6296 37.2165 17.6525 37.2862L17.7907 37.7134C17.8011 37.7446 17.8302 37.7654 17.8624 37.7654H18.3115C18.3853 37.7654 18.4155 37.859 18.3562 37.9016Z" fill="#D3F6F6"/>
<path d="M26.001 42.0996C24.2702 43.1683 22.7763 43.9625 21.7389 44.4479C21.7118 44.4594 21.6848 44.4718 21.6588 44.4843C21.3345 44.6351 21.058 44.7525 20.8366 44.8378L20.6536 44.9074C21.7285 46.0021 22.8855 47.0613 24.1215 48.0853C24.6371 48.5136 25.1673 48.9356 25.711 49.3504H25.712C25.8014 49.4201 25.8919 49.4887 25.9823 49.5573L30.1207 45.1039L26.001 42.0996ZM27.6081 45.5239L26.7308 46.1621C26.7037 46.1809 26.6933 46.2152 26.7027 46.2463L27.0385 47.2776C27.0613 47.3472 26.9813 47.4054 26.922 47.3618L26.0447 46.7245C26.0187 46.7058 25.9823 46.7058 25.9563 46.7245L25.0789 47.3618C25.0197 47.4054 24.9396 47.3472 24.9625 47.2776L25.2972 46.2463C25.3076 46.2152 25.2962 46.1809 25.2702 46.1621L24.3928 45.5239C24.3336 45.4812 24.3637 45.3877 24.4375 45.3877H25.5218C25.554 45.3877 25.5831 45.3669 25.5935 45.3357L25.9282 44.3045C25.9511 44.2348 26.0499 44.2348 26.0717 44.3045L26.4075 45.3357C26.4179 45.3669 26.4459 45.3877 26.4792 45.3877H27.5634C27.6372 45.3877 27.6674 45.4812 27.6081 45.5239Z" fill="#D3F6F6"/>
<path d="M33.0304 43.5167L32.9202 43.6155V43.5988C32.9202 43.5541 32.9212 43.5105 32.9233 43.4668C32.9597 43.4845 32.995 43.5011 33.0304 43.5167Z" fill="#26776F"/>
<path d="M35.4827 20.5294L35.0211 23.3227L33.7227 22.3247L33.1894 19.912H30.5854L30.3972 19.7675L30.7299 18.624L28.7392 17.2227C31.0657 17.6416 33.3111 18.5741 35.4837 20.5284L35.4827 20.5294Z" fill="#4BBB4F"/>
<path d="M35.4952 25.7399L33.8953 27.3584L33.4369 27.2649L33.7758 26.7794L30.2922 26.4946L28.9003 25.7035L29.8744 27.7129L30.4503 28.0102L29.6072 30.4209L28.6768 30.6995L28.6415 30.1725L28.4273 30.2348L28.4387 30.1756L29.4055 28.2805L28.681 25.5569L28.9533 24.64L28.9699 24.6733L31.6655 25.0403L33.467 23.3926L35.0263 24.5901L35.4952 25.7399Z" fill="#4BBB4F"/>
<path d="M31.8537 29.0781V32.8756L28.315 35.4557L26 35.4744L24.1486 35.4588L28.1705 34.6054L28.0021 32.3402L28.6976 32.3194L28.6934 31.8818L29.4014 31.6001L29.4502 31.9369H29.629L30.6862 31.1385L30.9097 29.7788H31.0584L31.1977 30.6967L31.3765 30.6676L31.6468 29.1935L31.8537 29.0781Z" fill="#4BBB4F"/>
<path d="M32.8505 34.7656C32.6322 35.2126 29.5708 38.088 28.0084 39.3708C27.8659 39.2814 27.7266 39.192 27.5915 39.1036L27.5281 39.0631C27.3628 38.955 27.1975 38.8448 27.0322 38.7346C28.3389 38.1317 32.8505 34.7656 32.8505 34.7656Z" fill="#4BBB4F"/>
<path d="M31.3474 44.9074C30.2725 46.0021 29.1155 47.0613 27.8795 48.0863C27.3639 48.5136 26.8337 48.9356 26.29 49.3504H26.289C26.1996 49.4201 26.1091 49.4887 26.0187 49.5573C26.0124 49.5531 26.0072 49.5479 26.001 49.5438C25.9948 49.5479 25.9885 49.5521 25.9823 49.5573L30.1207 45.1039L26.001 42.0996C27.7318 43.1683 29.2257 43.9625 30.2621 44.4479C30.2891 44.4594 30.3162 44.4718 30.3421 44.4843C30.6665 44.6351 30.943 44.7525 31.1644 44.8378L31.3474 44.9074Z" fill="#4BBB4F"/>
</g>
<defs>
<clipPath id="clip0_583_940">
<rect width="52.001" height="52" fill="white"/>
</clipPath>
</defs>
</svg>
