<svg width="48" height="49" viewBox="0 0 48 49" fill="none" xmlns="http://www.w3.org/2000/svg">
<g clip-path="url(#clip0_583_3385)">
<path d="M15.1136 4.85239C14.9466 4.92819 14.7806 5.00592 14.6165 5.08652C10.9174 6.8771 7.80832 9.69346 5.65887 13.1671L6.83339 13.3667C8.77942 10.369 11.4902 7.9144 14.6885 6.27736C14.8631 6.18716 15.0387 6.09984 15.2163 6.01539C15.2124 5.62389 15.1779 5.2343 15.1136 4.85239ZM11.2302 40.7156C11.2302 40.6408 11.2331 40.5669 11.2379 40.493C6.54648 36.744 3.54108 30.9731 3.54108 24.5007C3.54108 21.456 4.20607 18.5676 5.39787 15.971L4.5947 15.0978C3.21483 17.9391 2.44141 21.1297 2.44141 24.5007C2.44141 31.7724 6.0427 38.2044 11.5593 42.109C11.3492 41.6896 11.2302 41.2165 11.2302 40.7156ZM33.3974 5.09228C33.2227 5.00688 33.0462 4.92435 32.8687 4.84375C32.8044 5.22566 32.7698 5.61525 32.765 6.00676C32.9531 6.096 33.1402 6.18908 33.3254 6.28408C36.5189 7.92208 39.2259 10.3748 41.17 13.3686L42.3435 13.169C40.197 9.69921 37.0918 6.88381 33.3974 5.09228ZM43.4115 15.1074L42.6074 15.9816C43.7973 18.5743 44.4604 21.4598 44.4604 24.5007C44.4604 30.9846 41.4444 36.7641 36.7386 40.5122C36.7434 40.5794 36.7453 40.6475 36.7453 40.7156C36.7453 41.2271 36.6216 41.7098 36.4028 42.1358C41.9424 38.2342 45.56 31.7897 45.56 24.5007C45.56 21.1335 44.7876 17.9468 43.4115 15.1074ZM21.5715 45.7246C21.1359 45.3638 20.7089 44.9963 20.2924 44.6259C18.8022 44.3524 17.3696 43.9187 16.0118 43.342C15.554 43.6337 15.0157 43.8093 14.438 43.8266C16.7094 44.9531 19.2081 45.6911 21.8479 45.9521C21.7548 45.8763 21.6627 45.8004 21.5715 45.7246ZM31.9743 43.3487C30.6213 43.9216 29.1935 44.3534 27.71 44.625C27.2935 44.9973 26.8665 45.3648 26.4299 45.7266C26.3387 45.8024 26.2466 45.8772 26.1545 45.9521C28.7924 45.6901 31.2911 44.9531 33.5624 43.8276C32.98 43.8151 32.4359 43.6404 31.9743 43.3487Z" fill="#13D4C8"/>
<path d="M16.1726 4.41187C16.1726 4.41187 16.1659 4.41379 16.164 4.41475C16.1621 4.41571 16.1602 4.41667 16.1592 4.41667C16.1582 4.41763 16.1573 4.41763 16.1573 4.41763C16.2312 4.78898 16.2801 5.16418 16.3031 5.54225C16.6284 10.5992 12.5848 16.0017 6.72559 15.0027L8.19566 16.6014C9.20514 16.5141 10.1925 16.2703 11.1377 15.8999C15.6449 14.2005 17.802 9.76344 17.4978 5.13347C18.4843 4.71798 19.5878 4.54717 20.7892 4.29192C20.7911 4.29192 20.794 4.29192 20.7959 4.29192L21.6125 3.07422C21.5856 3.0771 21.5578 3.07998 21.5309 3.08285C18.4958 3.42159 16.3684 4.32647 16.1726 4.41283V4.41187Z" fill="#F6F5E4"/>
<path d="M31.7097 5.5365C31.7337 5.1613 31.7817 4.78802 31.8556 4.41859C31.8556 4.41859 31.8009 4.3946 31.6973 4.35142C31.6742 4.34278 31.6493 4.33223 31.6215 4.32167C31.0956 4.11152 29.7177 3.60966 27.8283 3.27765C27.7409 3.2623 27.6536 3.24694 27.5663 3.23255C27.3801 3.20184 27.1901 3.17306 26.9953 3.14619C26.8293 3.12412 26.6614 3.10301 26.4896 3.08381C26.4609 3.08094 26.4311 3.0771 26.4014 3.07422L27.216 4.28904L27.218 4.29192C28.4222 4.54717 29.5277 4.71798 30.516 5.13443C30.2118 9.7644 32.369 14.2015 36.8761 15.9009C37.8213 16.2713 38.8087 16.515 39.8182 16.6023L41.2883 15.0037C35.4262 16.0036 31.3816 10.5954 31.7097 5.5365Z" fill="#F6F5E4"/>
<path d="M24 0.5C10.7454 0.5 0 11.2444 0 24.5C0 37.7556 10.7454 48.5 24 48.5C37.2547 48.5 48.001 37.7547 48.001 24.5C48.001 11.2454 37.2556 0.5 24 0.5ZM24 47.2775C11.4209 47.2775 1.22346 37.0791 1.22346 24.5C1.22346 11.9209 11.4209 1.7225 24 1.7225C36.5791 1.7225 46.7775 11.9199 46.7775 24.5C46.7775 37.0801 36.5801 47.2775 24 47.2775Z" fill="#F6F5E4"/>
<path d="M14.3415 42.5475C13.639 42.5475 13.0652 41.99 13.0393 41.2943C13.0393 41.277 13.0374 41.2607 13.0374 41.2434C13.0374 41.2262 13.0383 41.2089 13.0393 41.1926C13.0652 40.4959 13.639 39.9394 14.3415 39.9394C14.7944 39.9394 15.1936 40.1706 15.4277 40.5209L16.2702 39.6784C15.9056 39.0086 15.1955 38.5547 14.3789 38.5547C13.19 38.5547 12.2256 39.5181 12.2256 40.707C12.2256 41.8959 13.19 42.8603 14.3789 42.8603C15.3768 42.8603 16.2155 42.1819 16.4602 41.2607L15.6014 41.5793C15.4536 42.1358 14.945 42.5475 14.3415 42.5475Z" fill="#F6F5E4"/>
<path d="M33.6214 38.5547C32.8048 38.5547 32.0947 39.0086 31.73 39.6784L32.5725 40.5209C32.8067 40.1706 33.2059 39.9394 33.6588 39.9394C34.3612 39.9394 34.935 40.4959 34.9609 41.1926C34.9619 41.2089 34.9629 41.2262 34.9629 41.2434C34.9629 41.2607 34.9619 41.277 34.9609 41.2943C34.935 41.99 34.3612 42.5475 33.6588 42.5475C33.0552 42.5475 32.5466 42.1358 32.3989 41.5793L31.54 41.2607C31.7847 42.1819 32.6234 42.8603 33.6214 42.8603C34.8103 42.8603 35.7747 41.8959 35.7747 40.707C35.7747 39.5181 34.8103 38.5547 33.6214 38.5547Z" fill="#F6F5E4"/>
<path d="M26.4749 24.0913L26.7263 23.245L25.3196 20.3384L27.0209 19.1169L23.9992 16.7937V16.7861L23.2046 16.1758C20.4411 16.3898 17.7974 17.1622 15.2622 19.4431L15.8207 22.8189L15.2354 24.2535L16.7121 25.7476L17.1363 25.6612L16.8235 25.2131L20.039 24.9502L21.3239 24.2199L20.4247 26.0748L19.8931 26.3492L20.6714 28.5745L21.5302 28.8317L21.5628 28.3451L22.0052 28.4737L22.0743 27.9776L22.4859 29.0188L23.2421 29.0735V28.468H23.6844V29.0735H24.0021V29.0811H24.3197V28.4756H24.762V29.0811L25.5182 29.0264L25.9298 27.9853L25.9989 28.4814L26.2436 28.4114L26.2542 28.3576L27.1466 26.6074L26.4778 24.0942L26.4749 24.0913ZM21.2586 23.268L18.7704 23.6068L16.7428 21.7528L17.38 18.8732H20.6502L22.6807 20.3308L21.2596 23.268H21.2586ZM25.2898 26.6908C24.7572 26.7254 24.3437 26.3166 24.0001 25.6478V25.6401C23.6566 26.3089 23.243 26.7187 22.7105 26.6832C22.3036 26.6832 22.1645 26.284 22.293 25.9001L23.3687 22.6904H24.0001V22.698H24.6315L25.7072 25.9078C25.8358 26.2926 25.6967 26.6908 25.2898 26.6908Z" fill="#F6F5E4"/>
<path d="M28.365 17.6919L28.058 18.7475L24.7129 16.1758C25.3232 16.2199 25.9277 16.2909 26.5275 16.3994L28.365 17.6929V17.6919Z" fill="#F6F5E4"/>
<path d="M32.7065 17.2702C30.2509 15.5181 27.1332 14.5748 24.1653 14.569C20.9948 14.5623 17.8436 15.6188 15.2949 17.4986C16.2439 15.4826 19.8088 13.7246 24.0616 13.7246C28.3145 13.7246 31.6058 15.3703 32.7065 17.2702Z" fill="#13D4C8"/>
<path d="M26.0037 32.4439L22.2911 33.2317H22.2892L21.8641 33.2288L18.5977 30.8471V27.3418L18.7886 27.4483L19.0371 28.809L19.2022 28.8359L19.3308 27.9886H19.468L19.6743 29.2437L20.6512 29.9806H20.8152L20.8603 29.6697L21.5138 29.9298L21.51 30.3338L22.1519 30.353V29.9806H22.696V30.399H23.5385V30.0037H24.4626V30.399H25.3041V29.9806H25.8482V30.353L26.0037 32.4439Z" fill="#F6F5E4"/>
<path d="M26.7938 9.00323C26.8044 8.96581 26.8121 8.92839 26.8121 8.88713C26.8121 8.65587 26.625 8.46875 26.3937 8.46875C26.1624 8.46875 25.9753 8.65587 25.9753 8.88713C25.9753 8.97733 26.0041 9.05985 26.0531 9.12798L23.9996 10.2008L21.9461 9.12798C21.994 9.05985 22.0238 8.97733 22.0238 8.88713C22.0238 8.65587 21.8367 8.46875 21.6054 8.46875C21.3742 8.46875 21.187 8.65587 21.187 8.88713C21.187 8.92743 21.1947 8.96581 21.2053 9.00323C21.022 9.04738 20.8848 9.21146 20.8848 9.40914C20.8848 9.64039 21.0719 9.82751 21.3031 9.82751C21.4739 9.82751 21.6208 9.72388 21.686 9.57706L23.4478 10.5107L22.1447 11.1882C22.1053 11.1469 22.0583 11.1133 22.0027 11.0894C21.7896 11.0001 21.545 11.1009 21.4557 11.3149C21.3665 11.5279 21.4682 11.7726 21.6812 11.8618C21.7186 11.8772 21.757 11.8848 21.7954 11.8896C21.7657 12.0758 21.8645 12.2658 22.0468 12.3416C22.2598 12.4308 22.5045 12.3291 22.5938 12.1161C22.6657 11.9443 22.612 11.7534 22.4786 11.6392L24.0015 10.8072L25.5243 11.6392C25.39 11.7543 25.3372 11.9443 25.4092 12.1161C25.4984 12.3291 25.7431 12.4299 25.9561 12.3416C26.1385 12.2658 26.2373 12.0758 26.2075 11.8896C26.2459 11.8848 26.2843 11.8772 26.3217 11.8618C26.5348 11.7726 26.6355 11.5279 26.5472 11.3149C26.458 11.1018 26.2133 11.0011 26.0003 11.0894C25.9446 11.1124 25.8966 11.1469 25.8583 11.1882L24.5552 10.5107L26.3169 9.57706C26.3812 9.72484 26.528 9.82751 26.6998 9.82751C26.9311 9.82751 27.1182 9.64039 27.1182 9.40914C27.1182 9.21146 26.981 9.04738 26.7977 9.00323H26.7938Z" fill="#F6F5E4"/>
<path d="M26.1381 5.79335C26.1055 5.22624 25.855 4.7215 25.4702 4.35782C25.0855 3.9951 24.5673 3.77344 23.9992 3.77344C23.4311 3.77344 22.913 3.9951 22.5282 4.35782C22.1434 4.7215 21.8929 5.22624 21.8603 5.79335C21.8603 5.81542 21.8584 5.83749 21.8584 5.85956C21.8584 5.91809 21.8632 5.97663 21.8728 6.0342L21.9764 6.66369V7.26534C21.9764 7.50044 22.1674 7.69139 22.4025 7.69139H22.5263C22.6673 7.69139 22.7815 7.80558 22.7815 7.94664V8.05603C22.7815 8.22684 22.9197 8.36598 23.0905 8.36598C23.1471 8.36598 23.197 8.38901 23.2335 8.42547C23.2699 8.46194 23.293 8.51183 23.293 8.56845V8.76804C23.293 8.85728 23.3649 8.92925 23.4542 8.92925C23.5434 8.92925 23.6144 8.85728 23.6144 8.76804V8.50608H23.7804V8.75844C23.7804 8.84769 23.8524 8.91965 23.9416 8.91965H24.0568C24.146 8.91965 24.218 8.84769 24.218 8.75844V8.50608H24.384V8.76804C24.384 8.85728 24.456 8.92925 24.5443 8.92925C24.6325 8.92925 24.7055 8.85728 24.7055 8.76804V8.56845C24.7055 8.51183 24.7285 8.46194 24.765 8.42547C24.8014 8.38901 24.8513 8.36598 24.9079 8.36598C25.0787 8.36598 25.2169 8.22684 25.2169 8.05603V7.94664C25.2169 7.80558 25.3311 7.69139 25.4722 7.69139H25.596C25.8311 7.69139 26.022 7.50044 26.022 7.26534V6.66369L26.1256 6.0342C26.1352 5.97663 26.14 5.91809 26.14 5.85956C26.14 5.83749 26.1391 5.81542 26.1381 5.79335ZM22.9744 7.17994C22.651 7.17994 22.3881 6.91701 22.3881 6.59268C22.3881 6.26834 22.651 6.00638 22.9744 6.00638C23.2978 6.00638 23.5616 6.2693 23.5616 6.59268C23.5616 6.91605 23.2987 7.17994 22.9744 7.17994ZM23.6279 7.82957L23.9992 6.82298L24.3706 7.82957H23.6279ZM25.024 7.17994C24.6997 7.17994 24.4368 6.91701 24.4368 6.59268C24.4368 6.26834 24.6997 6.00638 25.024 6.00638C25.3484 6.00638 25.6103 6.2693 25.6103 6.59268C25.6103 6.91605 25.3474 7.17994 25.024 7.17994Z" fill="#F6F5E4"/>
<path d="M22.5232 38.4161C22.6777 38.5178 22.8293 38.6176 22.9799 38.7154C21.0445 39.9044 19.1714 40.9388 18.3548 41.2516L17.6533 40.5502C18.8672 40.0003 20.6203 39.0513 22.1154 38.1426C22.2545 38.2366 22.3898 38.3278 22.5232 38.4161Z" fill="#13D4C8"/>
<path d="M38.2845 19.9883C38.2039 23.3852 36.47 26.6487 34.0528 29.5505H34.0509C31.9225 32.1068 29.2645 34.381 26.7351 36.2167C26.4395 36.4316 26.1459 36.6408 25.8542 36.8433C25.7227 36.7607 25.5941 36.6782 25.4694 36.5967L25.4108 36.5592C25.2583 36.4594 25.1057 36.3577 24.9531 36.256C25.2592 36.0363 25.5634 35.8117 25.8666 35.5824C30.0542 32.4225 33.9041 28.4834 35.543 25.0289C34.8339 25.8983 34.024 26.6977 33.1115 27.426C33.9645 25.5126 34.8329 23.6203 34.9759 20.6485L38.2845 19.9883Z" fill="#F6F5E4"/>
<path d="M33.5303 31.7647L35.2153 33.2213C36.2823 31.0814 37.0989 28.8322 37.6574 26.4688L37.3292 26.7489C36.2881 28.5789 34.9437 30.2687 33.5303 31.7647Z" fill="#F6F5E4"/>
<path d="M31.7727 33.5039C31.3332 33.9117 30.8957 34.2994 30.4677 34.664C29.2845 35.6745 28.0879 36.5947 26.9326 37.4171L30.6395 39.5147C30.9763 38.7259 31.6259 38.1022 32.432 37.8009H32.4329C33.0106 37.0016 33.5499 36.1869 34.0479 35.354L31.7727 33.5039ZM32.1537 35.7301C32.1297 35.7484 32.1191 35.7791 32.1287 35.8079L32.2564 36.2022C32.2775 36.2665 32.2036 36.3203 32.1489 36.28L31.814 36.0362C31.79 36.019 31.7564 36.019 31.7324 36.0362L31.3966 36.28C31.3419 36.3203 31.2689 36.2665 31.2891 36.2022L31.4177 35.8079C31.4273 35.7791 31.4167 35.7484 31.3927 35.7301L31.0569 35.4864C31.0022 35.4471 31.03 35.3607 31.0981 35.3607H31.5127C31.5424 35.3607 31.5693 35.3415 31.5789 35.3127L31.7065 34.9183C31.7276 34.854 31.8188 34.854 31.8389 34.9183L31.9675 35.3127C31.9771 35.3415 32.003 35.3607 32.0337 35.3607H32.4483C32.5154 35.3607 32.5433 35.4471 32.4895 35.4864L32.1537 35.7301Z" fill="#F6F5E4"/>
<path d="M30.4897 40.6691L30.388 40.7603L29.841 41.2516C28.8891 40.8869 26.3088 39.5426 24.0605 38.1157C24.0404 38.1032 24.0202 38.0898 24.0001 38.0773C23.9061 38.0168 23.8111 37.9564 23.7151 37.895L23.7132 37.893L23.7093 37.8902H23.7084C23.5165 37.7664 23.3217 37.6388 23.125 37.5083C20.0975 35.4979 16.6085 32.743 13.9495 29.5505H13.9485H13.9476C11.5304 26.6487 9.79642 23.3852 9.71582 19.9883L13.0244 20.6485C13.1674 23.6203 14.0358 25.5126 14.8889 27.426C13.9763 26.6977 13.1665 25.8983 12.4573 25.0289C14.3391 28.993 19.1283 33.5941 24.0001 36.9248C24.2717 37.111 24.5442 37.2933 24.8157 37.4708C24.8349 37.4833 24.8551 37.4967 24.8752 37.5092C26.4864 38.558 28.8815 39.9293 30.3909 40.624C30.4245 40.6403 30.4571 40.6557 30.4897 40.6701V40.6691Z" fill="#F6F5E4"/>
<path d="M14.4699 31.7647L12.7849 33.2213C11.7178 31.0814 10.9012 28.8322 10.3428 26.4688L10.6709 26.7489C11.7121 28.5789 13.0565 30.2687 14.4699 31.7647Z" fill="#F6F5E4"/>
<path d="M17.5333 34.664C17.1053 34.2994 16.6678 33.9117 16.2283 33.5039L13.9531 35.354C14.4617 36.2051 15.0135 37.038 15.6074 37.8527C16.3665 38.1761 16.9739 38.7912 17.2877 39.556L21.0684 37.4171C19.9131 36.5947 18.7165 35.6745 17.5333 34.664ZM16.9441 35.4864L16.6092 35.7301C16.5843 35.7484 16.5747 35.7791 16.5833 35.8079L16.7119 36.2022C16.7321 36.2665 16.6591 36.3203 16.6044 36.28L16.2695 36.0362C16.2446 36.019 16.212 36.019 16.187 36.0362L15.8521 36.28C15.7974 36.3203 15.7235 36.2665 15.7447 36.2022L15.8732 35.8079C15.8819 35.7791 15.8723 35.7484 15.8473 35.7301L15.5124 35.4864C15.4577 35.4471 15.4856 35.3607 15.5527 35.3607H15.9673C15.998 35.3607 16.0249 35.3415 16.0335 35.3127L16.1621 34.9183C16.1832 34.854 16.2734 34.854 16.2945 34.9183L16.4221 35.3127C16.4317 35.3415 16.4586 35.3607 16.4883 35.3607H16.9029C16.971 35.3607 16.9988 35.4471 16.9441 35.4864Z" fill="#F6F5E4"/>
<path d="M24.0005 39.3613C22.4028 40.3478 21.0239 41.0809 20.0663 41.529C20.0413 41.5396 20.0164 41.5511 19.9924 41.5626C19.693 41.7017 19.4377 41.8102 19.2333 41.8889L19.0645 41.9531C20.0567 42.9636 21.1247 43.9414 22.2656 44.8866C22.7416 45.2819 23.2309 45.6715 23.7328 46.0544H23.7338C23.8163 46.1187 23.8998 46.182 23.9832 46.2453L27.8033 42.1345L24.0005 39.3613ZM25.484 42.5222L24.6741 43.1114C24.6492 43.1286 24.6396 43.1603 24.6482 43.1891L24.9582 44.141C24.9793 44.2053 24.9054 44.259 24.8507 44.2187L24.0408 43.6305C24.0168 43.6132 23.9832 43.6132 23.9593 43.6305L23.1494 44.2187C23.0947 44.259 23.0208 44.2053 23.0419 44.141L23.3509 43.1891C23.3605 43.1603 23.3499 43.1286 23.3259 43.1114L22.5161 42.5222C22.4614 42.4828 22.4892 42.3965 22.5573 42.3965H23.5582C23.5879 42.3965 23.6148 42.3773 23.6244 42.3485L23.9334 41.3966C23.9545 41.3323 24.0456 41.3323 24.0658 41.3966L24.3757 42.3485C24.3853 42.3773 24.4112 42.3965 24.4419 42.3965H25.4428C25.5109 42.3965 25.5387 42.4828 25.484 42.5222Z" fill="#F6F5E4"/>
<path d="M30.4894 40.6691L30.3877 40.7603V40.7449C30.3877 40.7037 30.3887 40.6633 30.3906 40.623C30.4242 40.6394 30.4568 40.6547 30.4894 40.6691Z" fill="#13D4C8"/>
<path d="M32.7531 19.4489L32.3271 22.0273L31.1285 21.1061L30.6363 18.8789H28.2325L28.0588 18.7455L28.3659 17.69L26.5283 16.3965C28.6759 16.7832 30.7485 17.6439 32.7541 19.4479L32.7531 19.4489Z" fill="#13D4C8"/>
<path d="M32.7644 24.2605L31.2876 25.7545L30.8644 25.6682L31.1773 25.2201L27.9617 24.9571L26.6768 24.2269L27.576 26.0818L28.1076 26.3562L27.3294 28.5815L26.4705 28.8386L26.4379 28.3521L26.2402 28.4097L26.2508 28.355L27.1432 26.6057L26.4744 24.0916L26.7258 23.2452L26.7411 23.276L29.2293 23.6147L30.8923 22.0938L32.3316 23.1992L32.7644 24.2605Z" fill="#13D4C8"/>
<path d="M29.4034 27.3418V30.8471L26.137 33.2288L24 33.2461L22.291 33.2317L26.0036 32.4439L25.8482 30.353L26.4901 30.3338L26.4863 29.9298L27.1398 29.6697L27.1849 29.9806H27.3499L28.3258 29.2437L28.5321 27.9886H28.6693L28.7979 28.8359L28.963 28.809L29.2124 27.4483L29.4034 27.3418Z" fill="#13D4C8"/>
<path d="M30.3239 32.5918C30.1224 33.0044 27.2964 35.6586 25.8542 36.8427C25.7227 36.7602 25.5941 36.6777 25.4694 36.5961L25.4108 36.5587C25.2583 36.4589 25.1057 36.3572 24.9531 36.2555C26.1593 35.6989 30.3239 32.5918 30.3239 32.5918Z" fill="#13D4C8"/>
<path d="M28.9358 41.9531C27.9436 42.9636 26.8756 43.9414 25.7346 44.8875C25.2587 45.2819 24.7693 45.6715 24.2674 46.0544H24.2665C24.1839 46.1187 24.1005 46.182 24.017 46.2453C24.0112 46.2415 24.0064 46.2367 24.0007 46.2329C23.9949 46.2367 23.9892 46.2405 23.9834 46.2453L27.8035 42.1345L24.0007 39.3613C25.5984 40.3478 26.9773 41.0809 27.934 41.529C27.9589 41.5396 27.9839 41.5511 28.0079 41.5626C28.3073 41.7017 28.5625 41.8102 28.7669 41.8889L28.9358 41.9531Z" fill="#13D4C8"/>
</g>
<defs>
<clipPath id="clip0_583_3385">
<rect width="48.001" height="48" fill="white" transform="translate(0 0.5)"/>
</clipPath>
</defs>
</svg>
