<svg width="18" height="18" viewBox="0 0 18 18" fill="none" xmlns="http://www.w3.org/2000/svg">
<g id="Frame">
<path id="Vector" d="M9 1.6875C7.55373 1.6875 6.13993 2.11637 4.9374 2.91988C3.73486 3.72339 2.7976 4.86544 2.24413 6.20163C1.69067 7.53781 1.54586 9.00811 1.82801 10.4266C2.11017 11.8451 2.80661 13.148 3.82928 14.1707C4.85196 15.1934 6.15492 15.8898 7.57341 16.172C8.99189 16.4541 10.4622 16.3093 11.7984 15.7559C13.1346 15.2024 14.2766 14.2651 15.0801 13.0626C15.8836 11.8601 16.3125 10.4463 16.3125 9C16.3105 7.06123 15.5394 5.20246 14.1685 3.83154C12.7975 2.46063 10.9388 1.68955 9 1.6875ZM9.5625 4.45641L11.3055 3.25758C12.3035 3.65958 13.1801 4.31372 13.8495 5.15602L13.287 7.05023C13.2729 7.05023 13.2581 7.05727 13.2441 7.06219L11.6395 7.5832C11.6155 7.5909 11.592 7.6003 11.5692 7.61133L9.5625 6.23109C9.5625 6.21703 9.5625 6.20227 9.5625 6.1875V4.5C9.5625 4.48523 9.5625 4.47047 9.5625 4.45641ZM6.69657 3.25758L8.4375 4.45641C8.4375 4.47047 8.4375 4.48523 8.4375 4.5V6.1875C8.4375 6.20227 8.4375 6.21703 8.4375 6.23109L6.42938 7.61414C6.40664 7.60311 6.38314 7.59371 6.35907 7.58602L4.75453 7.065C4.74047 7.06008 4.72571 7.05656 4.71164 7.05305L4.14914 5.15883C4.81916 4.31502 5.697 3.65985 6.69657 3.25758ZM5.7825 12.3342H3.78985C3.20656 11.4273 2.87216 10.3829 2.82024 9.30586L4.36711 8.11898C4.38042 8.12487 4.39403 8.13003 4.40789 8.13445L6.01313 8.65617C6.03459 8.66265 6.05643 8.66782 6.07852 8.67164L6.83719 10.8809C6.82664 10.8935 6.8161 10.9062 6.80625 10.9195L5.81485 12.2843C5.80317 12.3003 5.79237 12.317 5.7825 12.3342ZM10.5954 14.9766C9.55002 15.255 8.44998 15.255 7.40461 14.9766L6.69727 12.9797C6.70641 12.9684 6.71625 12.9579 6.72469 12.9459L7.7168 11.5805C7.72847 11.5647 7.73927 11.5482 7.74914 11.5312H10.2509C10.2607 11.5482 10.2715 11.5647 10.2832 11.5805L11.2753 12.9459C11.2838 12.9579 11.2936 12.9684 11.3027 12.9797L10.5954 14.9766ZM12.2175 12.3321C12.2076 12.3149 12.1968 12.2982 12.1852 12.2822L11.1931 10.9195C11.1832 10.9062 11.1727 10.8935 11.1621 10.8809L11.9208 8.67164C11.9429 8.66782 11.9647 8.66265 11.9862 8.65617L13.5914 8.13445C13.6053 8.13003 13.6189 8.12487 13.6322 8.11898L15.1791 9.30586C15.1271 10.3829 14.7927 11.4273 14.2095 12.3342L12.2175 12.3321Z" fill="black"/>
</g>
</svg>
