<svg width="52" height="52" viewBox="0 0 52 52" fill="none" xmlns="http://www.w3.org/2000/svg">
<g clip-path="url(#clip0_583_971)">
<path d="M16.3738 4.71443C16.1929 4.79656 16.0131 4.88076 15.8353 4.96808C11.8279 6.90787 8.45976 9.95893 6.13119 13.7221L7.40359 13.9383C9.51178 10.6908 12.4485 8.03161 15.9133 6.25816C16.1025 6.16044 16.2927 6.06584 16.485 5.97436C16.4809 5.55023 16.4434 5.12817 16.3738 4.71443ZM12.1668 43.5663C12.1668 43.4852 12.1699 43.4052 12.1751 43.3251C7.09276 39.2636 3.83692 33.0118 3.83692 26.0001C3.83692 22.7016 4.55732 19.5726 5.84843 16.7596L4.97833 15.8136C3.48347 18.8917 2.6456 22.3482 2.6456 26.0001C2.6456 33.8778 6.547 40.8458 12.5233 45.0757C12.2957 44.6214 12.1668 44.1089 12.1668 43.5663ZM36.1812 4.97432C35.9921 4.8818 35.8008 4.7924 35.6085 4.70508C35.5388 5.11882 35.5014 5.54087 35.4962 5.965C35.6999 6.06168 35.9026 6.16252 36.1033 6.26543C39.5629 8.03993 42.4954 10.697 44.6015 13.9404L45.8729 13.7242C43.5474 9.96516 40.1835 6.91515 36.1812 4.97432ZM47.0299 15.824L46.1588 16.7711C47.4478 19.5799 48.1661 22.7058 48.1661 26.0001C48.1661 33.0243 44.8988 39.2855 39.8009 43.3459C39.8061 43.4187 39.8082 43.4925 39.8082 43.5663C39.8082 44.1204 39.6741 44.6433 39.4371 45.1048C45.4384 40.878 49.3574 33.8965 49.3574 26.0001C49.3574 22.3524 48.5206 18.9 47.0299 15.824ZM23.3699 48.9927C22.898 48.6018 22.4354 48.2037 21.9842 47.8024C20.3698 47.5062 18.8178 47.0363 17.3468 46.4115C16.8509 46.7275 16.2678 46.9178 15.642 46.9365C18.1026 48.1569 20.8095 48.9563 23.6693 49.2391C23.5685 49.157 23.4687 49.0748 23.3699 48.9927ZM34.6396 46.4188C33.1738 47.0394 31.627 47.5072 30.0199 47.8014C29.5687 48.2047 29.1061 48.6029 28.6331 48.9948C28.5344 49.0769 28.4346 49.158 28.3348 49.2391C31.1925 48.9553 33.8994 48.1569 36.36 46.9375C35.729 46.924 35.1396 46.7348 34.6396 46.4188Z" fill="#BB4A70"/>
<path d="M17.5215 4.23818C17.5215 4.23818 17.5142 4.24026 17.5121 4.2413C17.51 4.24234 17.508 4.24338 17.5069 4.24338C17.5059 4.24442 17.5048 4.24442 17.5048 4.24442C17.5849 4.64673 17.6379 5.05319 17.6628 5.46277C18.0153 10.9412 13.6346 16.7938 7.28717 15.7116L8.87975 17.4435C9.97335 17.3489 11.043 17.0849 12.067 16.6836C16.9497 14.8426 19.2866 10.0357 18.9571 5.01992C20.0257 4.5698 21.2212 4.38476 22.5227 4.10824C22.5248 4.10824 22.5279 4.10824 22.53 4.10824L23.4146 2.78906C23.3855 2.79218 23.3554 2.7953 23.3263 2.79842C20.0382 3.16538 17.7335 4.14567 17.5215 4.23922V4.23818Z" fill="#F6CABB"/>
<path d="M34.3537 5.45458C34.3797 5.04811 34.4317 4.64373 34.5118 4.24351C34.5118 4.24351 34.4525 4.21752 34.3402 4.17074C34.3153 4.16138 34.2883 4.14995 34.2581 4.13851C33.6884 3.91085 32.1957 3.36717 30.1488 3.00749C30.0542 2.99086 29.9596 2.97423 29.865 2.95863C29.6633 2.92537 29.4575 2.89418 29.2465 2.86508C29.0666 2.84117 28.8847 2.8183 28.6986 2.7975C28.6674 2.79439 28.6352 2.79023 28.603 2.78711L29.4856 4.10317L29.4876 4.10629C30.7923 4.38281 31.9898 4.56785 33.0606 5.01901C32.731 10.0348 35.0679 14.8416 39.9506 16.6827C40.9746 17.0839 42.0443 17.348 43.1379 17.4426L44.7305 15.7107C38.3799 16.7939 33.9982 10.935 34.3537 5.45458Z" fill="#F6CABB"/>
<path d="M26.001 0C11.6418 0 0.00100708 11.6398 0.00100708 26C0.00100708 40.3602 11.6418 52 26.001 52C40.3602 52 52.002 40.3592 52.002 26C52.002 11.6408 40.3612 0 26.001 0ZM26.001 50.6756C12.3736 50.6756 1.32642 39.6274 1.32642 26C1.32642 12.3726 12.3736 1.32438 26.001 1.32438C39.6284 1.32438 50.6766 12.3716 50.6766 26C50.6766 39.6284 39.6294 50.6756 26.001 50.6756Z" fill="#F6CABB"/>
<path d="M15.538 45.5521C14.7771 45.5521 14.1554 44.9481 14.1274 44.1945C14.1274 44.1757 14.1253 44.1581 14.1253 44.1394C14.1253 44.1207 14.1263 44.1019 14.1274 44.0843C14.1554 43.3296 14.7771 42.7266 15.538 42.7266C16.0287 42.7266 16.4611 42.9772 16.7148 43.3566L17.6275 42.4439C17.2325 41.7183 16.4632 41.2266 15.5786 41.2266C14.2906 41.2266 13.2458 42.2703 13.2458 43.5583C13.2458 44.8463 14.2906 45.891 15.5786 45.891C16.6597 45.891 17.5682 45.156 17.8333 44.1581L16.9029 44.5032C16.7428 45.1061 16.1919 45.5521 15.538 45.5521Z" fill="#F6CABB"/>
<path d="M36.4245 41.2266C35.5399 41.2266 34.7706 41.7183 34.3756 42.4439L35.2883 43.3566C35.5419 42.9772 35.9744 42.7266 36.465 42.7266C37.226 42.7266 37.8476 43.3296 37.8757 44.0843C37.8767 44.1019 37.8778 44.1207 37.8778 44.1394C37.8778 44.1581 37.8767 44.1757 37.8757 44.1945C37.8476 44.9481 37.226 45.5521 36.465 45.5521C35.8112 45.5521 35.2602 45.1061 35.1001 44.5032L34.1697 44.1581C34.4348 45.156 35.3434 45.891 36.4245 45.891C37.7125 45.891 38.7572 44.8463 38.7572 43.5583C38.7572 42.2703 37.7125 41.2266 36.4245 41.2266Z" fill="#F6CABB"/>
<path d="M28.682 25.5576L28.9543 24.6407L27.4304 21.492L29.2735 20.1686L26 17.6519V17.6436L25.1392 16.9824C22.1453 17.2142 19.2814 18.0511 16.5349 20.5221L17.1399 24.1792L16.5058 25.7333L18.1057 27.3519L18.5652 27.2583L18.2263 26.7728L21.7098 26.488L23.1017 25.6969L22.1277 27.7063L21.5518 28.0037L22.3948 30.4144L23.3252 30.6929L23.3606 30.1659L23.8398 30.3052L23.9146 29.7678L24.3606 30.8957L25.1798 30.9549V30.299H25.659V30.9549H26.0031V30.9632H26.3472V30.3073H26.8264V30.9632L27.6456 30.904L28.0915 29.7761L28.1664 30.3135L28.4315 30.2376L28.4429 30.1794L29.4097 28.2833L28.6851 25.5607L28.682 25.5576ZM23.031 24.6657L20.3355 25.0326L18.1389 23.0242L18.8292 19.9046H22.372L24.5716 21.4836L23.0321 24.6657H23.031ZM27.3982 28.3737C26.8212 28.4112 26.3732 27.9683 26.001 27.2437V27.2354C25.6289 27.96 25.1808 28.4039 24.6039 28.3654C24.1631 28.3654 24.0124 27.933 24.1517 27.5171L25.317 24.0399H26.001V24.0482H26.685L27.8504 27.5255C27.9897 27.9423 27.8389 28.3737 27.3982 28.3737Z" fill="#F6CABB"/>
<path d="M30.7299 18.6249L30.3972 19.7684L26.7734 16.9824C27.4345 17.0302 28.0894 17.1072 28.7392 17.2246L30.7299 18.6259V18.6249Z" fill="#F6CABB"/>
<path d="M35.4328 18.1673C32.7726 16.2691 29.3951 15.2472 26.1798 15.241C22.7452 15.2337 19.3313 16.3782 16.5703 18.4147C17.5984 16.2306 21.4603 14.3262 26.0675 14.3262C30.6748 14.3262 34.2404 16.109 35.4328 18.1673Z" fill="#BB4A70"/>
<path d="M28.1716 34.6054L24.1496 35.4588H24.1475L23.687 35.4557L20.1484 32.8756V29.0781L20.3552 29.1935L20.6245 30.6676L20.8033 30.6967L20.9426 29.7788H21.0912L21.3147 31.1385L22.373 31.9369H22.5508L22.5996 31.6001L23.3075 31.8818L23.3034 32.3194L23.9988 32.3402V31.9369H24.5883V32.3901H25.501V31.9618H26.5021V32.3901H27.4137V31.9369H28.0032V32.3402L28.1716 34.6054Z" fill="#F6CABB"/>
<path d="M29.0282 9.21379C29.0396 9.17325 29.0479 9.13271 29.0479 9.08801C29.0479 8.83748 28.8452 8.63477 28.5947 8.63477C28.3441 8.63477 28.1414 8.83748 28.1414 9.08801C28.1414 9.18572 28.1726 9.27512 28.2256 9.34893L26.001 10.5111L23.7764 9.34893C23.8284 9.27512 23.8606 9.18572 23.8606 9.08801C23.8606 8.83748 23.6579 8.63477 23.4073 8.63477C23.1568 8.63477 22.9541 8.83748 22.9541 9.08801C22.9541 9.13167 22.9624 9.17325 22.9739 9.21379C22.7753 9.26161 22.6266 9.43937 22.6266 9.65352C22.6266 9.90405 22.8294 10.1068 23.0799 10.1068C23.2649 10.1068 23.424 9.99449 23.4947 9.83544L25.4033 10.8469L23.9916 11.5808C23.9489 11.5361 23.898 11.4997 23.8377 11.4738C23.6069 11.3771 23.3419 11.4862 23.2452 11.718C23.1485 11.9488 23.2587 12.2139 23.4895 12.3106C23.53 12.3272 23.5716 12.3355 23.6132 12.3407C23.5809 12.5424 23.688 12.7482 23.8855 12.8304C24.1163 12.927 24.3814 12.8168 24.4781 12.5861C24.556 12.4 24.4978 12.1931 24.3533 12.0694L26.0031 11.1681L27.6528 12.0694C27.5073 12.1942 27.4501 12.4 27.5281 12.5861C27.6248 12.8168 27.8899 12.926 28.1206 12.8304C28.3181 12.7482 28.4252 12.5424 28.393 12.3407C28.4346 12.3355 28.4762 12.3272 28.5167 12.3106C28.7475 12.2139 28.8566 11.9488 28.761 11.718C28.6643 11.4873 28.3992 11.3781 28.1684 11.4738C28.1082 11.4987 28.0562 11.5361 28.0146 11.5808L26.6029 10.8469L28.5115 9.83544C28.5811 9.99553 28.7402 10.1068 28.9263 10.1068C29.1768 10.1068 29.3795 9.90405 29.3795 9.65352C29.3795 9.43937 29.2309 9.26161 29.0323 9.21379H29.0282Z" fill="#F6CABB"/>
<path d="M28.3182 5.73511C28.2828 5.12074 28.0115 4.57394 27.5946 4.17996C27.1778 3.78701 26.6164 3.54688 26.001 3.54688C25.3856 3.54688 24.8243 3.78701 24.4074 4.17996C23.9905 4.57394 23.7192 5.12074 23.6839 5.73511C23.6839 5.75902 23.6818 5.78293 23.6818 5.80684C23.6818 5.87025 23.687 5.93367 23.6974 5.99604L23.8097 6.67798V7.32977C23.8097 7.58446 24.0165 7.79133 24.2712 7.79133H24.4053C24.5581 7.79133 24.6818 7.91503 24.6818 8.06785V8.18635C24.6818 8.37139 24.8315 8.52213 25.0166 8.52213C25.0779 8.52213 25.132 8.54707 25.1715 8.58658C25.211 8.62608 25.2359 8.68014 25.2359 8.74147V8.95769C25.2359 9.05437 25.3139 9.13234 25.4106 9.13234C25.5072 9.13234 25.5842 9.05437 25.5842 8.95769V8.6739H25.764V8.9473C25.764 9.04398 25.842 9.12194 25.9386 9.12194H26.0634C26.1601 9.12194 26.238 9.04398 26.238 8.9473V8.6739H26.4179V8.95769C26.4179 9.05437 26.4958 9.13234 26.5915 9.13234C26.6871 9.13234 26.7661 9.05437 26.7661 8.95769V8.74147C26.7661 8.68014 26.7911 8.62608 26.8306 8.58658C26.8701 8.54707 26.9241 8.52213 26.9855 8.52213C27.1705 8.52213 27.3202 8.37139 27.3202 8.18635V8.06785C27.3202 7.91503 27.4439 7.79133 27.5967 7.79133H27.7308C27.9855 7.79133 28.1924 7.58446 28.1924 7.32977V6.67798L28.3046 5.99604C28.315 5.93367 28.3202 5.87025 28.3202 5.80684C28.3202 5.78293 28.3192 5.75902 28.3182 5.73511ZM24.8908 7.23725C24.5405 7.23725 24.2556 6.95242 24.2556 6.60105C24.2556 6.24969 24.5405 5.96589 24.8908 5.96589C25.2411 5.96589 25.527 6.25073 25.527 6.60105C25.527 6.95138 25.2421 7.23725 24.8908 7.23725ZM25.5987 7.94102L26.001 6.85054L26.4033 7.94102H25.5987ZM27.1112 7.23725C26.7599 7.23725 26.475 6.95242 26.475 6.60105C26.475 6.24969 26.7599 5.96589 27.1112 5.96589C27.4626 5.96589 27.7464 6.25073 27.7464 6.60105C27.7464 6.95138 27.4616 7.23725 27.1112 7.23725Z" fill="#F6CABB"/>
<path d="M24.4012 41.0756C24.5685 41.1858 24.7328 41.2939 24.896 41.3999C22.7992 42.6879 20.77 43.8085 19.8854 44.1474L19.1255 43.3875C20.4405 42.7919 22.3398 41.7637 23.9594 40.7793C24.1101 40.8812 24.2567 40.9799 24.4012 41.0756Z" fill="#BB4A70"/>
<path d="M41.4756 21.1113C41.3883 24.7913 39.5099 28.3268 36.8912 31.4704H36.8892C34.5835 34.2397 31.7039 36.7034 28.9637 38.6921C28.6435 38.9249 28.3254 39.1516 28.0094 39.3709C27.867 39.2815 27.7277 39.1921 27.5925 39.1037L27.5291 39.0632C27.3638 38.9551 27.1986 38.8449 27.0333 38.7347C27.3649 38.4966 27.6944 38.2534 28.0229 38.0049C32.5595 34.5817 36.7301 30.3144 38.5057 26.572C37.7374 27.5139 36.8601 28.3798 35.8715 29.1688C36.7956 27.096 37.7364 25.046 37.8913 21.8265L41.4756 21.1113Z" fill="#F6CABB"/>
<path d="M36.3257 33.87L38.1512 35.4481C39.3072 33.1299 40.1918 30.6932 40.7968 28.1328L40.4413 28.4364C39.3134 30.4188 37.857 32.2494 36.3257 33.87Z" fill="#F6CABB"/>
<path d="M34.4213 35.7539C33.9452 36.1957 33.4712 36.6157 33.0075 37.0107C31.7258 38.1054 30.4295 39.1023 29.1779 39.9932L33.1936 42.2656C33.5585 41.4111 34.2623 40.7354 35.1355 40.409H35.1365C35.7623 39.543 36.3465 38.6605 36.8861 37.7581L34.4213 35.7539ZM34.834 38.1656C34.808 38.1854 34.7966 38.2187 34.807 38.2498L34.9452 38.6771C34.9681 38.7467 34.8881 38.805 34.8288 38.7613L34.466 38.4973C34.44 38.4785 34.4036 38.4785 34.3776 38.4973L34.0138 38.7613C33.9546 38.805 33.8755 38.7467 33.8974 38.6771L34.0367 38.2498C34.0471 38.2187 34.0356 38.1854 34.0096 38.1656L33.6458 37.9016C33.5866 37.859 33.6167 37.7654 33.6905 37.7654H34.1396C34.1718 37.7654 34.2009 37.7446 34.2113 37.7134L34.3496 37.2862C34.3725 37.2165 34.4712 37.2165 34.493 37.2862L34.6323 37.7134C34.6427 37.7446 34.6708 37.7654 34.7041 37.7654H35.1531C35.2259 37.7654 35.2561 37.859 35.1978 37.9016L34.834 38.1656Z" fill="#F6CABB"/>
<path d="M33.0314 43.5156L32.9212 43.6143L32.3287 44.1466C31.2975 43.7515 28.5021 42.2951 26.0665 40.7493C26.0447 40.7358 26.0228 40.7213 26.001 40.7077C25.8991 40.6423 25.7962 40.5768 25.6923 40.5102L25.6902 40.5082L25.686 40.505H25.685C25.4771 40.3709 25.266 40.2327 25.0529 40.0913C21.7732 37.9135 17.9934 34.9289 15.1128 31.4704H15.1118H15.1108C12.4921 28.3268 10.6137 24.7913 10.5264 21.1113L14.1107 21.8265C14.2656 25.046 15.2064 27.096 16.1305 29.1688C15.1419 28.3798 14.2646 27.5139 13.4963 26.572C15.5349 30.8664 20.7232 35.851 26.001 39.4593C26.2952 39.6609 26.5904 39.8584 26.8846 40.0508C26.9054 40.0643 26.9272 40.0788 26.9491 40.0923C28.6945 41.2286 31.2892 42.7141 32.9244 43.4667C32.9607 43.4844 32.9961 43.501 33.0314 43.5166V43.5156Z" fill="#F6CABB"/>
<path d="M15.6763 33.87L13.8508 35.4481C12.6949 33.1299 11.8102 30.6932 11.2052 28.1328L11.5607 28.4364C12.6886 30.4188 14.145 32.2494 15.6763 33.87Z" fill="#F6CABB"/>
<path d="M18.9955 37.0107C18.5319 36.6157 18.0579 36.1957 17.5818 35.7539L15.117 37.7581C15.668 38.6802 16.2657 39.5825 16.9092 40.4651C17.7315 40.8154 18.3895 41.4818 18.7294 42.3103L22.8252 39.9932C21.5736 39.1023 20.2773 38.1054 18.9955 37.0107ZM18.3573 37.9016L17.9945 38.1656C17.9674 38.1854 17.957 38.2187 17.9664 38.2498L18.1057 38.6771C18.1275 38.7467 18.0485 38.805 17.9893 38.7613L17.6265 38.4973C17.5994 38.4785 17.5641 38.4785 17.5371 38.4973L17.1743 38.7613C17.115 38.805 17.035 38.7467 17.0578 38.6771L17.1971 38.2498C17.2065 38.2187 17.1961 38.1854 17.1691 38.1656L16.8063 37.9016C16.747 37.859 16.7772 37.7654 16.8499 37.7654H17.299C17.3323 37.7654 17.3614 37.7446 17.3707 37.7134L17.51 37.2862C17.5329 37.2165 17.6306 37.2165 17.6535 37.2862L17.7917 37.7134C17.8021 37.7446 17.8312 37.7654 17.8635 37.7654H18.3126C18.3864 37.7654 18.4165 37.859 18.3573 37.9016Z" fill="#F6CABB"/>
<path d="M26.002 42.0996C24.2712 43.1683 22.7774 43.9625 21.7399 44.4479C21.7129 44.4594 21.6859 44.4718 21.6599 44.4843C21.3355 44.6351 21.059 44.7525 20.8376 44.8378L20.6546 44.9074C21.7295 46.0021 22.8865 47.0613 24.1225 48.0853C24.6382 48.5136 25.1683 48.9356 25.712 49.3504H25.713C25.8024 49.4201 25.8929 49.4887 25.9833 49.5573L30.1217 45.1039L26.002 42.0996ZM27.6092 45.5239L26.7318 46.1621C26.7048 46.1809 26.6944 46.2152 26.7037 46.2463L27.0395 47.2776C27.0624 47.3472 26.9823 47.4054 26.9231 47.3618L26.0457 46.7245C26.0197 46.7058 25.9833 46.7058 25.9573 46.7245L25.08 47.3618C25.0207 47.4054 24.9407 47.3472 24.9635 47.2776L25.2983 46.2463C25.3087 46.2152 25.2972 46.1809 25.2712 46.1621L24.3939 45.5239C24.3346 45.4812 24.3648 45.3877 24.4386 45.3877H25.5228C25.555 45.3877 25.5841 45.3669 25.5945 45.3357L25.9293 44.3045C25.9521 44.2348 26.0509 44.2348 26.0727 44.3045L26.4085 45.3357C26.4189 45.3669 26.447 45.3877 26.4802 45.3877H27.5645C27.6383 45.3877 27.6684 45.4812 27.6092 45.5239Z" fill="#F6CABB"/>
<path d="M33.0314 43.5167L32.9212 43.6155V43.5988C32.9212 43.5541 32.9223 43.5105 32.9244 43.4668C32.9607 43.4845 32.9961 43.5011 33.0314 43.5167Z" fill="#772C17"/>
<path d="M35.4837 20.5294L35.0222 23.3227L33.7238 22.3247L33.1905 19.912H30.5864L30.3983 19.7675L30.7309 18.624L28.7402 17.2227C31.0667 17.6416 33.3121 18.5741 35.4848 20.5284L35.4837 20.5294Z" fill="#BB4A70"/>
<path d="M35.4962 25.7399L33.8963 27.3584L33.4379 27.2649L33.7768 26.7794L30.2933 26.4946L28.9013 25.7035L29.8754 27.7129L30.4513 28.0102L29.6082 30.4209L28.6778 30.6995L28.6425 30.1725L28.4283 30.2348L28.4398 30.1756L29.4066 28.2805L28.682 25.5569L28.9544 24.64L28.971 24.6733L31.6665 25.0403L33.468 23.3926L35.0274 24.5901L35.4962 25.7399Z" fill="#BB4A70"/>
<path d="M31.8547 29.0781V32.8756L28.3161 35.4557L26.001 35.4744L24.1496 35.4588L28.1716 34.6054L28.0032 32.3402L28.6986 32.3194L28.6945 31.8818L29.4024 31.6001L29.4513 31.9369H29.6301L30.6873 31.1385L30.9108 29.7788H31.0594L31.1987 30.6967L31.3775 30.6676L31.6478 29.1935L31.8547 29.0781Z" fill="#BB4A70"/>
<path d="M32.8516 34.7656C32.6333 35.2126 29.5718 38.088 28.0094 39.3708C27.867 39.2814 27.7277 39.192 27.5925 39.1036L27.5291 39.0631C27.3638 38.955 27.1986 38.8448 27.0333 38.7346C28.34 38.1317 32.8516 34.7656 32.8516 34.7656Z" fill="#BB4A70"/>
<path d="M31.3484 44.9074C30.2735 46.0021 29.1165 47.0613 27.8805 48.0863C27.3649 48.5136 26.8347 48.9356 26.291 49.3504H26.29C26.2006 49.4201 26.1102 49.4887 26.0197 49.5573C26.0135 49.5531 26.0083 49.5479 26.002 49.5438C25.9958 49.5479 25.9896 49.5521 25.9833 49.5573L30.1218 45.1039L26.002 42.0996C27.7329 43.1683 29.2267 43.9625 30.2631 44.4479C30.2902 44.4594 30.3172 44.4718 30.3432 44.4843C30.6675 44.6351 30.944 44.7525 31.1655 44.8378L31.3484 44.9074Z" fill="#BB4A70"/>
</g>
<defs>
<clipPath id="clip0_583_971">
<rect width="52.001" height="52" fill="white" transform="translate(0.00100708)"/>
</clipPath>
</defs>
</svg>
