<svg width="33" height="32" viewBox="0 0 33 32" fill="none" xmlns="http://www.w3.org/2000/svg">
<path d="M16.5 22C18.0908 21.9983 19.616 21.3657 20.7408 20.2408C21.8657 19.116 22.4983 17.5908 22.5 16V8C22.5 6.4087 21.8679 4.88258 20.7426 3.75736C19.6174 2.63214 18.0913 2 16.5 2C14.9087 2 13.3826 2.63214 12.2574 3.75736C11.1321 4.88258 10.5 6.4087 10.5 8V16C10.5017 17.5908 11.1343 19.116 12.2592 20.2408C13.384 21.3657 14.9092 21.9983 16.5 22ZM12.5 8C12.5 6.93913 12.9214 5.92172 13.6716 5.17157C14.4217 4.42143 15.4391 4 16.5 4C17.5609 4 18.5783 4.42143 19.3284 5.17157C20.0786 5.92172 20.5 6.93913 20.5 8V16C20.5 17.0609 20.0786 18.0783 19.3284 18.8284C18.5783 19.5786 17.5609 20 16.5 20C15.4391 20 14.4217 19.5786 13.6716 18.8284C12.9214 18.0783 12.5 17.0609 12.5 16V8ZM17.5 25.95V29C17.5 29.2652 17.3946 29.5196 17.2071 29.7071C17.0196 29.8946 16.7652 30 16.5 30C16.2348 30 15.9804 29.8946 15.7929 29.7071C15.6054 29.5196 15.5 29.2652 15.5 29V25.95C13.0346 25.6991 10.7497 24.543 9.0873 22.7051C7.4249 20.8672 6.50305 18.4782 6.5 16C6.5 15.7348 6.60536 15.4804 6.79289 15.2929C6.98043 15.1054 7.23478 15 7.5 15C7.76522 15 8.01957 15.1054 8.20711 15.2929C8.39464 15.4804 8.5 15.7348 8.5 16C8.5 18.1217 9.34285 20.1566 10.8431 21.6569C12.3434 23.1571 14.3783 24 16.5 24C18.6217 24 20.6566 23.1571 22.1569 21.6569C23.6571 20.1566 24.5 18.1217 24.5 16C24.5 15.7348 24.6054 15.4804 24.7929 15.2929C24.9804 15.1054 25.2348 15 25.5 15C25.7652 15 26.0196 15.1054 26.2071 15.2929C26.3946 15.4804 26.5 15.7348 26.5 16C26.497 18.4782 25.5751 20.8672 23.9127 22.7051C22.2503 24.543 19.9654 25.6991 17.5 25.95Z" fill="white"/>
</svg>
