<svg width="48" height="49" viewBox="0 0 48 49" fill="none" xmlns="http://www.w3.org/2000/svg">
<g clip-path="url(#clip0_403_616)">
<path d="M15.1136 4.85239C14.9466 4.92819 14.7806 5.00592 14.6165 5.08652C10.9174 6.8771 7.80832 9.69346 5.65887 13.1671L6.83339 13.3667C8.77942 10.369 11.4902 7.9144 14.6885 6.27736C14.8631 6.18716 15.0387 6.09984 15.2163 6.01539C15.2124 5.62389 15.1779 5.2343 15.1136 4.85239ZM11.2302 40.7156C11.2302 40.6408 11.2331 40.5669 11.2379 40.493C6.54648 36.744 3.54108 30.9731 3.54108 24.5007C3.54108 21.456 4.20607 18.5676 5.39787 15.971L4.5947 15.0978C3.21483 17.9391 2.44141 21.1297 2.44141 24.5007C2.44141 31.7724 6.0427 38.2044 11.5593 42.109C11.3492 41.6896 11.2302 41.2165 11.2302 40.7156ZM33.3974 5.09228C33.2227 5.00688 33.0462 4.92435 32.8687 4.84375C32.8044 5.22566 32.7698 5.61525 32.765 6.00676C32.9531 6.096 33.1402 6.18908 33.3254 6.28408C36.5189 7.92208 39.2259 10.3748 41.17 13.3686L42.3435 13.169C40.197 9.69921 37.0918 6.88381 33.3974 5.09228ZM43.4115 15.1074L42.6074 15.9816C43.7973 18.5743 44.4604 21.4598 44.4604 24.5007C44.4604 30.9846 41.4444 36.7641 36.7386 40.5122C36.7434 40.5794 36.7453 40.6475 36.7453 40.7156C36.7453 41.2271 36.6216 41.7098 36.4028 42.1358C41.9424 38.2342 45.56 31.7897 45.56 24.5007C45.56 21.1335 44.7876 17.9468 43.4115 15.1074ZM21.5715 45.7246C21.1359 45.3638 20.7089 44.9963 20.2924 44.6259C18.8022 44.3524 17.3696 43.9187 16.0118 43.342C15.554 43.6337 15.0157 43.8093 14.438 43.8266C16.7094 44.9531 19.2081 45.6911 21.8479 45.9521C21.7548 45.8763 21.6627 45.8004 21.5715 45.7246ZM31.9743 43.3487C30.6213 43.9216 29.1935 44.3534 27.71 44.625C27.2935 44.9973 26.8665 45.3648 26.4299 45.7266C26.3387 45.8024 26.2466 45.8772 26.1545 45.9521C28.7924 45.6901 31.2911 44.9531 33.5624 43.8276C32.98 43.8151 32.4359 43.6404 31.9743 43.3487Z" fill="#BB9A58"/>
<path d="M16.1726 4.41187C16.1726 4.41187 16.1659 4.41379 16.164 4.41475C16.1621 4.41571 16.1602 4.41667 16.1592 4.41667C16.1582 4.41763 16.1573 4.41763 16.1573 4.41763C16.2312 4.78898 16.2801 5.16418 16.3031 5.54225C16.6284 10.5992 12.5848 16.0017 6.72559 15.0027L8.19566 16.6014C9.20514 16.5141 10.1925 16.2703 11.1377 15.8999C15.6449 14.2005 17.802 9.76344 17.4978 5.13347C18.4843 4.71798 19.5878 4.54717 20.7892 4.29192C20.7911 4.29192 20.794 4.29192 20.7959 4.29192L21.6125 3.07422C21.5856 3.0771 21.5578 3.07998 21.5309 3.08285C18.4958 3.42159 16.3684 4.32647 16.1726 4.41283V4.41187Z" fill="#F6F5E4"/>
<path d="M31.7102 5.5365C31.7342 5.1613 31.7822 4.78802 31.8561 4.41859C31.8561 4.41859 31.8014 4.3946 31.6978 4.35142C31.6747 4.34278 31.6498 4.33223 31.622 4.32167C31.0961 4.11152 29.7182 3.60966 27.8287 3.27765C27.7414 3.2623 27.6541 3.24694 27.5668 3.23255C27.3806 3.20184 27.1906 3.17306 26.9958 3.14619C26.8298 3.12412 26.6619 3.10301 26.4901 3.08381C26.4613 3.08094 26.4316 3.0771 26.4019 3.07422L27.2165 4.28904L27.2185 4.29192C28.4227 4.54717 29.5282 4.71798 30.5165 5.13443C30.2123 9.7644 32.3695 14.2015 36.8766 15.9009C37.8218 16.2713 38.8092 16.515 39.8187 16.6023L41.2887 15.0037C35.4267 16.0036 31.3821 10.5954 31.7102 5.5365Z" fill="#F6F5E4"/>
<path d="M24 0.5C10.7454 0.5 0 11.2444 0 24.5C0 37.7556 10.7454 48.5 24 48.5C37.2547 48.5 48.001 37.7547 48.001 24.5C48.001 11.2454 37.2556 0.5 24 0.5ZM24 47.2775C11.4209 47.2775 1.22346 37.0791 1.22346 24.5C1.22346 11.9209 11.4209 1.7225 24 1.7225C36.5791 1.7225 46.7775 11.9199 46.7775 24.5C46.7775 37.0801 36.5801 47.2775 24 47.2775Z" fill="#F6F5E4"/>
<path d="M14.3419 42.5475C13.6395 42.5475 13.0657 41.99 13.0398 41.2943C13.0398 41.277 13.0379 41.2607 13.0379 41.2434C13.0379 41.2262 13.0388 41.2089 13.0398 41.1926C13.0657 40.4959 13.6395 39.9394 14.3419 39.9394C14.7949 39.9394 15.194 40.1706 15.4282 40.5209L16.2707 39.6784C15.9061 39.0086 15.196 38.5547 14.3794 38.5547C13.1905 38.5547 12.2261 39.5181 12.2261 40.707C12.2261 41.8959 13.1905 42.8603 14.3794 42.8603C15.3773 42.8603 16.216 42.1819 16.4607 41.2607L15.6019 41.5793C15.4541 42.1358 14.9455 42.5475 14.3419 42.5475Z" fill="#F6F5E4"/>
<path d="M33.6219 38.5547C32.8053 38.5547 32.0952 39.0086 31.7305 39.6784L32.573 40.5209C32.8072 40.1706 33.2064 39.9394 33.6593 39.9394C34.3617 39.9394 34.9355 40.4959 34.9614 41.1926C34.9624 41.2089 34.9633 41.2262 34.9633 41.2434C34.9633 41.2607 34.9624 41.277 34.9614 41.2943C34.9355 41.99 34.3617 42.5475 33.6593 42.5475C33.0557 42.5475 32.5471 42.1358 32.3994 41.5793L31.5405 41.2607C31.7852 42.1819 32.6239 42.8603 33.6219 42.8603C34.8108 42.8603 35.7751 41.8959 35.7751 40.707C35.7751 39.5181 34.8108 38.5547 33.6219 38.5547Z" fill="#F6F5E4"/>
<path d="M26.4749 24.0913L26.7263 23.245L25.3196 20.3384L27.0209 19.1169L23.9992 16.7937V16.7861L23.2046 16.1758C20.4411 16.3898 17.7974 17.1622 15.2622 19.4431L15.8207 22.8189L15.2354 24.2535L16.7121 25.7476L17.1363 25.6612L16.8235 25.2131L20.039 24.9502L21.3239 24.2199L20.4247 26.0748L19.8931 26.3492L20.6714 28.5745L21.5302 28.8317L21.5628 28.3451L22.0052 28.4737L22.0743 27.9776L22.4859 29.0188L23.2421 29.0735V28.468H23.6844V29.0735H24.0021V29.0811H24.3197V28.4756H24.762V29.0811L25.5182 29.0264L25.9298 27.9853L25.9989 28.4814L26.2436 28.4114L26.2542 28.3576L27.1466 26.6074L26.4778 24.0942L26.4749 24.0913ZM21.2586 23.268L18.7704 23.6068L16.7428 21.7528L17.38 18.8732H20.6502L22.6807 20.3308L21.2596 23.268H21.2586ZM25.2898 26.6908C24.7572 26.7254 24.3437 26.3166 24.0001 25.6478V25.6401C23.6566 26.3089 23.243 26.7187 22.7105 26.6832C22.3036 26.6832 22.1645 26.284 22.293 25.9001L23.3687 22.6904H24.0001V22.698H24.6315L25.7072 25.9078C25.8358 26.2926 25.6967 26.6908 25.2898 26.6908Z" fill="#F6F5E4"/>
<path d="M28.365 17.6919L28.058 18.7475L24.7129 16.1758C25.3232 16.2199 25.9277 16.2909 26.5275 16.3994L28.365 17.6929V17.6919Z" fill="#F6F5E4"/>
<path d="M32.7065 17.2702C30.2509 15.5181 27.1332 14.5748 24.1653 14.569C20.9948 14.5623 17.8436 15.6188 15.2949 17.4986C16.2439 15.4826 19.8088 13.7246 24.0616 13.7246C28.3145 13.7246 31.6058 15.3703 32.7065 17.2702Z" fill="#BB9A58"/>
<path d="M26.0037 32.4439L22.2911 33.2317H22.2892L21.8641 33.2288L18.5977 30.8471V27.3418L18.7886 27.4483L19.0371 28.809L19.2022 28.8359L19.3308 27.9886H19.468L19.6743 29.2437L20.6512 29.9806H20.8152L20.8603 29.6697L21.5138 29.9298L21.51 30.3338L22.1519 30.353V29.9806H22.696V30.399H23.5385V30.0037H24.4626V30.399H25.3041V29.9806H25.8482V30.353L26.0037 32.4439Z" fill="#F6F5E4"/>
<path d="M26.7943 9.00323C26.8049 8.96581 26.8126 8.92839 26.8126 8.88713C26.8126 8.65587 26.6254 8.46875 26.3942 8.46875C26.1629 8.46875 25.9758 8.65587 25.9758 8.88713C25.9758 8.97733 26.0046 9.05985 26.0535 9.12798L24 10.2008L21.9465 9.12798C21.9945 9.05985 22.0243 8.97733 22.0243 8.88713C22.0243 8.65587 21.8372 8.46875 21.6059 8.46875C21.3746 8.46875 21.1875 8.65587 21.1875 8.88713C21.1875 8.92743 21.1952 8.96581 21.2058 9.00323C21.0225 9.04738 20.8853 9.21146 20.8853 9.40914C20.8853 9.64039 21.0724 9.82751 21.3036 9.82751C21.4744 9.82751 21.6213 9.72388 21.6865 9.57706L23.4483 10.5107L22.1452 11.1882C22.1058 11.1469 22.0588 11.1133 22.0032 11.0894C21.7901 11.0001 21.5454 11.1009 21.4562 11.3149C21.367 11.5279 21.4687 11.7726 21.6817 11.8618C21.7191 11.8772 21.7575 11.8848 21.7959 11.8896C21.7661 12.0758 21.865 12.2658 22.0473 12.3416C22.2603 12.4308 22.505 12.3291 22.5943 12.1161C22.6662 11.9443 22.6125 11.7534 22.4791 11.6392L24.002 10.8072L25.5248 11.6392C25.3905 11.7543 25.3377 11.9443 25.4097 12.1161C25.4989 12.3291 25.7436 12.4299 25.9566 12.3416C26.1389 12.2658 26.2378 12.0758 26.208 11.8896C26.2464 11.8848 26.2848 11.8772 26.3222 11.8618C26.5352 11.7726 26.636 11.5279 26.5477 11.3149C26.4585 11.1018 26.2138 11.0011 26.0008 11.0894C25.9451 11.1124 25.8971 11.1469 25.8587 11.1882L24.5556 10.5107L26.3174 9.57706C26.3817 9.72484 26.5285 9.82751 26.7003 9.82751C26.9316 9.82751 27.1187 9.64039 27.1187 9.40914C27.1187 9.21146 26.9815 9.04738 26.7982 9.00323H26.7943Z" fill="#F6F5E4"/>
<path d="M26.1391 5.79335C26.1065 5.22624 25.856 4.7215 25.4712 4.35782C25.0864 3.9951 24.5683 3.77344 24.0002 3.77344C23.4321 3.77344 22.914 3.9951 22.5292 4.35782C22.1444 4.7215 21.8939 5.22624 21.8613 5.79335C21.8613 5.81542 21.8594 5.83749 21.8594 5.85956C21.8594 5.91809 21.8642 5.97663 21.8738 6.0342L21.9774 6.66369V7.26534C21.9774 7.50044 22.1684 7.69139 22.4035 7.69139H22.5272C22.6683 7.69139 22.7825 7.80558 22.7825 7.94664V8.05603C22.7825 8.22684 22.9207 8.36598 23.0915 8.36598C23.1481 8.36598 23.198 8.38901 23.2345 8.42547C23.2709 8.46194 23.2939 8.51183 23.2939 8.56845V8.76804C23.2939 8.85728 23.3659 8.92925 23.4552 8.92925C23.5444 8.92925 23.6154 8.85728 23.6154 8.76804V8.50608H23.7814V8.75844C23.7814 8.84769 23.8534 8.91965 23.9426 8.91965H24.0578C24.147 8.91965 24.219 8.84769 24.219 8.75844V8.50608H24.385V8.76804C24.385 8.85728 24.457 8.92925 24.5452 8.92925C24.6335 8.92925 24.7064 8.85728 24.7064 8.76804V8.56845C24.7064 8.51183 24.7295 8.46194 24.7659 8.42547C24.8024 8.38901 24.8523 8.36598 24.9089 8.36598C25.0797 8.36598 25.2179 8.22684 25.2179 8.05603V7.94664C25.2179 7.80558 25.3321 7.69139 25.4731 7.69139H25.5969C25.832 7.69139 26.023 7.50044 26.023 7.26534V6.66369L26.1266 6.0342C26.1362 5.97663 26.141 5.91809 26.141 5.85956C26.141 5.83749 26.1401 5.81542 26.1391 5.79335ZM22.9754 7.17994C22.652 7.17994 22.3891 6.91701 22.3891 6.59268C22.3891 6.26834 22.652 6.00638 22.9754 6.00638C23.2987 6.00638 23.5626 6.2693 23.5626 6.59268C23.5626 6.91605 23.2997 7.17994 22.9754 7.17994ZM23.6288 7.82957L24.0002 6.82298L24.3715 7.82957H23.6288ZM25.025 7.17994C24.7007 7.17994 24.4378 6.91701 24.4378 6.59268C24.4378 6.26834 24.7007 6.00638 25.025 6.00638C25.3494 6.00638 25.6113 6.2693 25.6113 6.59268C25.6113 6.91605 25.3484 7.17994 25.025 7.17994Z" fill="#F6F5E4"/>
<path d="M22.5232 38.4161C22.6777 38.5178 22.8293 38.6176 22.9799 38.7154C21.0445 39.9044 19.1714 40.9388 18.3548 41.2516L17.6533 40.5502C18.8672 40.0003 20.6203 39.0513 22.1154 38.1426C22.2545 38.2366 22.3898 38.3278 22.5232 38.4161Z" fill="#BB9A58"/>
<path d="M38.284 19.9883C38.2034 23.3852 36.4695 26.6487 34.0523 29.5505H34.0504C31.922 32.1068 29.264 34.381 26.7346 36.2167C26.439 36.4316 26.1454 36.6408 25.8537 36.8433C25.7222 36.7607 25.5936 36.6782 25.4689 36.5967L25.4104 36.5592C25.2578 36.4594 25.1052 36.3577 24.9526 36.256C25.2587 36.0363 25.5629 35.8117 25.8662 35.5824C30.0538 32.4225 33.9036 28.4834 35.5425 25.0289C34.8334 25.8983 34.0235 26.6977 33.111 27.426C33.964 25.5126 34.8324 23.6203 34.9754 20.6485L38.284 19.9883Z" fill="#F6F5E4"/>
<path d="M33.5308 31.7647L35.2158 33.2213C36.2828 31.0814 37.0994 28.8322 37.6579 26.4688L37.3297 26.7489C36.2886 28.5789 34.9442 30.2687 33.5308 31.7647Z" fill="#F6F5E4"/>
<path d="M31.7727 33.5039C31.3332 33.9117 30.8957 34.2994 30.4677 34.664C29.2845 35.6745 28.0879 36.5947 26.9326 37.4171L30.6395 39.5147C30.9763 38.7259 31.6259 38.1022 32.432 37.8009H32.4329C33.0106 37.0016 33.5499 36.1869 34.0479 35.354L31.7727 33.5039ZM32.1537 35.7301C32.1297 35.7484 32.1191 35.7791 32.1287 35.8079L32.2564 36.2022C32.2775 36.2665 32.2036 36.3203 32.1489 36.28L31.814 36.0362C31.79 36.019 31.7564 36.019 31.7324 36.0362L31.3966 36.28C31.3419 36.3203 31.2689 36.2665 31.2891 36.2022L31.4177 35.8079C31.4273 35.7791 31.4167 35.7484 31.3927 35.7301L31.0569 35.4864C31.0022 35.4471 31.03 35.3607 31.0981 35.3607H31.5127C31.5424 35.3607 31.5693 35.3415 31.5789 35.3127L31.7065 34.9183C31.7276 34.854 31.8188 34.854 31.8389 34.9183L31.9675 35.3127C31.9771 35.3415 32.003 35.3607 32.0337 35.3607H32.4483C32.5154 35.3607 32.5433 35.4471 32.4895 35.4864L32.1537 35.7301Z" fill="#F6F5E4"/>
<path d="M30.4897 40.6691L30.388 40.7603L29.841 41.2516C28.8891 40.8869 26.3088 39.5426 24.0605 38.1157C24.0404 38.1032 24.0202 38.0898 24.0001 38.0773C23.9061 38.0168 23.8111 37.9564 23.7151 37.895L23.7132 37.893L23.7093 37.8902H23.7084C23.5165 37.7664 23.3217 37.6388 23.125 37.5083C20.0975 35.4979 16.6085 32.743 13.9495 29.5505H13.9485H13.9476C11.5304 26.6487 9.79642 23.3852 9.71582 19.9883L13.0244 20.6485C13.1674 23.6203 14.0358 25.5126 14.8889 27.426C13.9763 26.6977 13.1665 25.8983 12.4573 25.0289C14.3391 28.993 19.1283 33.5941 24.0001 36.9248C24.2717 37.111 24.5442 37.2933 24.8157 37.4708C24.8349 37.4833 24.8551 37.4967 24.8752 37.5092C26.4864 38.558 28.8815 39.9293 30.3909 40.624C30.4245 40.6403 30.4571 40.6557 30.4897 40.6701V40.6691Z" fill="#F6F5E4"/>
<path d="M14.4694 31.7647L12.7844 33.2213C11.7174 31.0814 10.9008 28.8322 10.3423 26.4688L10.6705 26.7489C11.7116 28.5789 13.056 30.2687 14.4694 31.7647Z" fill="#F6F5E4"/>
<path d="M17.5333 34.664C17.1053 34.2994 16.6678 33.9117 16.2283 33.5039L13.9531 35.354C14.4617 36.2051 15.0135 37.038 15.6074 37.8527C16.3665 38.1761 16.9739 38.7912 17.2877 39.556L21.0684 37.4171C19.9131 36.5947 18.7165 35.6745 17.5333 34.664ZM16.9441 35.4864L16.6092 35.7301C16.5843 35.7484 16.5747 35.7791 16.5833 35.8079L16.7119 36.2022C16.7321 36.2665 16.6591 36.3203 16.6044 36.28L16.2695 36.0362C16.2446 36.019 16.212 36.019 16.187 36.0362L15.8521 36.28C15.7974 36.3203 15.7235 36.2665 15.7447 36.2022L15.8732 35.8079C15.8819 35.7791 15.8723 35.7484 15.8473 35.7301L15.5124 35.4864C15.4577 35.4471 15.4856 35.3607 15.5527 35.3607H15.9673C15.998 35.3607 16.0249 35.3415 16.0335 35.3127L16.1621 34.9183C16.1832 34.854 16.2734 34.854 16.2945 34.9183L16.4221 35.3127C16.4317 35.3415 16.4586 35.3607 16.4883 35.3607H16.9029C16.971 35.3607 16.9988 35.4471 16.9441 35.4864Z" fill="#F6F5E4"/>
<path d="M24.001 39.3613C22.4033 40.3478 21.0244 41.0809 20.0667 41.529C20.0418 41.5396 20.0168 41.5511 19.9929 41.5626C19.6935 41.7017 19.4382 41.8102 19.2338 41.8889L19.0649 41.9531C20.0571 42.9636 21.1252 43.9414 22.2661 44.8866C22.742 45.2819 23.2314 45.6715 23.7333 46.0544H23.7342C23.8168 46.1187 23.9003 46.182 23.9837 46.2453L27.8038 42.1345L24.001 39.3613ZM25.4845 42.5222L24.6746 43.1114C24.6497 43.1286 24.6401 43.1603 24.6487 43.1891L24.9587 44.141C24.9798 44.2053 24.9059 44.259 24.8512 44.2187L24.0413 43.6305C24.0173 43.6132 23.9837 43.6132 23.9597 43.6305L23.1499 44.2187C23.0952 44.259 23.0213 44.2053 23.0424 44.141L23.3514 43.1891C23.361 43.1603 23.3504 43.1286 23.3264 43.1114L22.5165 42.5222C22.4618 42.4828 22.4897 42.3965 22.5578 42.3965H23.5586C23.5884 42.3965 23.6153 42.3773 23.6249 42.3485L23.9338 41.3966C23.955 41.3323 24.0461 41.3323 24.0663 41.3966L24.3762 42.3485C24.3858 42.3773 24.4117 42.3965 24.4424 42.3965H25.4433C25.5114 42.3965 25.5392 42.4828 25.4845 42.5222Z" fill="#F6F5E4"/>
<path d="M30.4894 40.6691L30.3877 40.7603V40.7449C30.3877 40.7037 30.3887 40.6633 30.3906 40.623C30.4242 40.6394 30.4568 40.6547 30.4894 40.6691Z" fill="#777020"/>
<path d="M32.7531 19.4489L32.3271 22.0273L31.1285 21.1061L30.6363 18.8789H28.2325L28.0588 18.7455L28.3659 17.69L26.5283 16.3965C28.6759 16.7832 30.7485 17.6439 32.7541 19.4479L32.7531 19.4489Z" fill="#BB9A58"/>
<path d="M32.7649 24.2605L31.2881 25.7545L30.8649 25.6682L31.1778 25.2201L27.9622 24.9571L26.6773 24.2269L27.5765 26.0818L28.1081 26.3562L27.3298 28.5815L26.471 28.8386L26.4384 28.3521L26.2407 28.4097L26.2513 28.355L27.1437 26.6057L26.4749 24.0916L26.7263 23.2452L26.7416 23.276L29.2298 23.6147L30.8928 22.0938L32.3321 23.1992L32.7649 24.2605Z" fill="#BB9A58"/>
<path d="M29.4034 27.3418V30.8471L26.137 33.2288L24 33.2461L22.291 33.2317L26.0036 32.4439L25.8482 30.353L26.4901 30.3338L26.4863 29.9298L27.1398 29.6697L27.1849 29.9806H27.3499L28.3258 29.2437L28.5321 27.9886H28.6693L28.7979 28.8359L28.963 28.809L29.2124 27.4483L29.4034 27.3418Z" fill="#BB9A58"/>
<path d="M30.3234 32.5918C30.1219 33.0044 27.2959 35.6586 25.8537 36.8427C25.7222 36.7602 25.5936 36.6777 25.4689 36.5961L25.4104 36.5587C25.2578 36.4589 25.1052 36.3572 24.9526 36.2555C26.1588 35.6989 30.3234 32.5918 30.3234 32.5918Z" fill="#BB9A58"/>
<path d="M28.9363 41.9531C27.9441 42.9636 26.8761 43.9414 25.7351 44.8875C25.2592 45.2819 24.7698 45.6715 24.2679 46.0544H24.267C24.1844 46.1187 24.101 46.182 24.0175 46.2453C24.0117 46.2415 24.0069 46.2367 24.0012 46.2329C23.9954 46.2367 23.9896 46.2405 23.9839 46.2453L27.804 42.1345L24.0012 39.3613C25.5989 40.3478 26.9778 41.0809 27.9345 41.529C27.9594 41.5396 27.9844 41.5511 28.0084 41.5626C28.3077 41.7017 28.563 41.8102 28.7674 41.8889L28.9363 41.9531Z" fill="#BB9A58"/>
</g>
<defs>
<clipPath id="clip0_403_616">
<rect width="48.001" height="48" fill="white" transform="translate(0 0.5)"/>
</clipPath>
</defs>
</svg>
