<svg width="25" height="24" viewBox="0 0 25 24" fill="none" xmlns="http://www.w3.org/2000/svg">
<path d="M24.5 12C24.5 12.2652 24.3946 12.5196 24.2071 12.7071C24.0196 12.8946 23.7652 13 23.5 13H13.5V23C13.5 23.2652 13.3946 23.5196 13.2071 23.7071C13.0196 23.8946 12.7652 24 12.5 24C12.2348 24 11.9804 23.8946 11.7929 23.7071C11.6054 23.5196 11.5 23.2652 11.5 23V13H1.5C1.23478 13 0.98043 12.8946 0.792893 12.7071C0.605357 12.5196 0.5 12.2652 0.5 12C0.5 11.7348 0.605357 11.4804 0.792893 11.2929C0.98043 11.1054 1.23478 11 1.5 11H11.5V1C11.5 0.734784 11.6054 0.48043 11.7929 0.292893C11.9804 0.105357 12.2348 0 12.5 0C12.7652 0 13.0196 0.105357 13.2071 0.292893C13.3946 0.48043 13.5 0.734784 13.5 1V11H23.5C23.7652 11 24.0196 11.1054 24.2071 11.2929C24.3946 11.4804 24.5 11.7348 24.5 12Z" fill="white"/>
</svg>
