<svg width="64" height="64" viewBox="0 0 64 64" fill="none" xmlns="http://www.w3.org/2000/svg">
<path opacity="0.2" d="M62.0001 48V50C62.0001 50.5304 61.7894 51.0391 61.4143 51.4142C61.0392 51.7893 60.5305 52 60.0001 52H36.8276C36.2979 51.9997 35.7899 51.7893 35.4151 51.415L8.58511 25.415C8.39916 25.2292 8.25164 25.0087 8.15099 24.7659C8.05034 24.5231 7.99854 24.2628 7.99854 24C7.99854 23.7371 8.05034 23.4769 8.15099 23.2341C8.25164 22.9913 8.39916 22.7707 8.58511 22.585L24.5851 6.55248C24.9628 6.19259 25.4663 5.99455 25.988 6.00062C26.5097 6.0067 27.0083 6.21639 27.3776 6.58498L29.4351 8.64248C29.7858 8.99506 29.9926 9.46567 30.0151 9.96248C30.3551 16.86 35.3526 21.3775 42.1801 21.9275C42.6783 21.9731 43.1413 22.2038 43.4778 22.5741C43.8142 22.9443 43.9997 23.4272 43.9976 23.9275V30C43.9976 32.6521 45.0512 35.1957 46.9265 37.071C48.8019 38.9464 51.3454 40 53.9976 40C55.0484 39.9996 56.0889 40.2063 57.0598 40.6082C58.0307 41.0101 58.9129 41.5993 59.6561 42.3422C60.3992 43.0851 60.9887 43.9672 61.3909 44.9379C61.7931 45.9087 62.0001 46.9492 62.0001 48Z" fill="white"/>
<path d="M54.0002 38C51.8784 38 49.8436 37.1571 48.3433 35.6568C46.843 34.1565 46.0002 32.1217 46.0002 30V23.925C46.0001 22.9234 45.6243 21.9584 44.9471 21.2205C44.2699 20.4827 43.3405 20.0257 42.3427 19.94C36.2552 19.44 32.2977 15.5925 32.0152 9.87246C31.9646 8.88429 31.5495 7.94995 30.8502 7.24996L28.7952 5.19246C28.0597 4.44889 27.061 4.02489 26.0153 4.01225C24.9695 3.99962 23.9608 4.39937 23.2077 5.12496L23.1702 5.15996L7.17016 21.19C6.42058 21.94 5.99951 22.9571 5.99951 24.0175C5.99951 25.0779 6.42058 26.0949 7.17016 26.845L7.19266 26.8675L34.0102 52.8675C34.7629 53.6022 35.7758 54.0094 36.8277 54H60.0002C61.061 54 62.0784 53.5785 62.8286 52.8284C63.5787 52.0782 64.0002 51.0608 64.0002 50V48C64.0002 45.3478 62.9466 42.8043 61.0712 40.9289C59.1959 39.0535 56.6523 38 54.0002 38ZM60.0002 50H36.8277L36.8052 49.98L10.0002 24L25.9677 7.99996L28.0202 10.05C28.2102 13.905 29.6827 17.2625 32.2702 19.7575C34.7702 22.1575 38.1327 23.5925 41.9902 23.9075V28H38.0002C37.4697 28 36.961 28.2107 36.5859 28.5857C36.2109 28.9608 36.0002 29.4695 36.0002 30C36.0002 30.5304 36.2109 31.0391 36.5859 31.4142C36.961 31.7892 37.4697 32 38.0002 32H42.1702C42.4079 33.4092 42.8974 34.7641 43.6152 36H40.0002C39.4697 36 38.961 36.2107 38.5859 36.5857C38.2109 36.9608 38.0002 37.4695 38.0002 38C38.0002 38.5304 38.2109 39.0391 38.5859 39.4142C38.961 39.7892 39.4697 40 40.0002 40H47.3777C49.3388 41.3068 51.6435 42.0028 54.0002 42C55.5915 42 57.1176 42.6321 58.2428 43.7573C59.368 44.8825 60.0002 46.4087 60.0002 48V50ZM16.0002 46H8.00016C7.46972 46 6.96102 45.7892 6.58594 45.4142C6.21087 45.0391 6.00016 44.5304 6.00016 44C6.00016 43.4695 6.21087 42.9608 6.58594 42.5857C6.96102 42.2107 7.46972 42 8.00016 42H16.0002C16.5306 42 17.0393 42.2107 17.4144 42.5857C17.7894 42.9608 18.0002 43.4695 18.0002 44C18.0002 44.5304 17.7894 45.0391 17.4144 45.4142C17.0393 45.7892 16.5306 46 16.0002 46ZM26.0002 52C26.0002 52.5304 25.7894 53.0391 25.4144 53.4142C25.0393 53.7892 24.5306 54 24.0002 54H12.0002C11.4697 54 10.961 53.7892 10.5859 53.4142C10.2109 53.0391 10.0002 52.5304 10.0002 52C10.0002 51.4695 10.2109 50.9608 10.5859 50.5857C10.961 50.2107 11.4697 50 12.0002 50H24.0002C24.5306 50 25.0393 50.2107 25.4144 50.5857C25.7894 50.9608 26.0002 51.4695 26.0002 52Z" fill="white"/>
</svg>
