<svg width="24" height="24" viewBox="0 0 24 24" fill="none" xmlns="http://www.w3.org/2000/svg">
<path d="M12 2.4375C10.1087 2.4375 8.25991 2.99833 6.68736 4.04907C5.11482 5.09981 3.88917 6.59327 3.16541 8.34059C2.44164 10.0879 2.25227 12.0106 2.62125 13.8656C2.99022 15.7205 3.90096 17.4244 5.2383 18.7617C6.57564 20.099 8.27951 21.0098 10.1345 21.3788C11.9894 21.7477 13.9121 21.5584 15.6594 20.8346C17.4067 20.1108 18.9002 18.8852 19.9509 17.3126C21.0017 15.7401 21.5625 13.8913 21.5625 12C21.5595 9.46478 20.5511 7.03425 18.7584 5.24158C16.9658 3.44891 14.5352 2.44048 12 2.4375ZM19.2816 16.2581H15.9272L14.9447 14.9062L16.1906 11.2762L17.7844 10.7597L20.4038 12.7687C20.2918 14.0004 19.9086 15.1921 19.2816 16.2581ZM8.07282 16.2581H4.71844C4.09211 15.1919 3.70952 14.0003 3.59813 12.7687L6.2175 10.7597L7.81125 11.2762L9.05532 14.9062L8.07282 16.2581ZM4.78125 7.63312L5.46 9.92156L3.585 11.3597C3.68431 10.0405 4.09422 8.7636 4.78125 7.63312ZM10.0838 14.4375L8.92032 11.0494L12 8.9325L15.0797 11.0494L13.9163 14.4375H10.0838ZM18.5391 9.92156L19.2188 7.63312C19.9055 8.76368 20.315 10.0406 20.4141 11.3597L18.5391 9.92156ZM18.3834 6.48844L17.4375 9.68906L15.8438 10.2075L12.5625 7.9575V6.29625L15.4594 4.305C16.5812 4.81158 17.5791 5.5567 18.3834 6.48844ZM14.1488 3.84375L12 5.3175L9.85125 3.84375C11.2599 3.47376 12.7401 3.47376 14.1488 3.84375ZM8.54157 4.30406L11.4375 6.29625V7.95375L8.15625 10.2037L6.5625 9.68531L5.61657 6.48844C6.42131 5.55647 7.41946 4.81106 8.54157 4.30406ZM5.50782 17.3831H7.96219L8.82375 19.8206C7.5349 19.293 6.39599 18.4558 5.50782 17.3831ZM10.1653 20.2359L8.98875 16.9116L9.96938 15.5625H14.0306L15.0113 16.9116L13.8347 20.2359C12.6263 20.5047 11.3737 20.5047 10.1653 20.2359ZM15.1763 19.8159L16.0378 17.3784H18.4922C17.604 18.4511 16.4651 19.2883 15.1763 19.8159Z" fill="#ED3F3F"/>
</svg>
