<svg width="24" height="24" viewBox="0 0 24 24" fill="none" xmlns="http://www.w3.org/2000/svg">
<g clip-path="url(#clip0_939_7985)">
<path d="M21.0002 20.0019C21.0002 19.7374 20.8954 19.4837 20.7087 19.2962C20.5221 19.108 20.2683 19.0016 20.0032 19.0005C19.7381 18.9993 19.4833 19.1034 19.295 19.29C19.2675 19.3175 16.5 22 12 22C7.625 22 4.47 18.9188 2.93 17H7C7.26522 17 7.51957 16.8946 7.70711 16.7071C7.89464 16.5196 8 16.2652 8 16C8 15.7348 7.89464 15.4804 7.70711 15.2929C7.51957 15.1054 7.26522 15 7 15H1C0.734784 15 0.48043 15.1054 0.292893 15.2929C0.105357 15.4804 0 15.7348 0 16V22C0 22.2652 0.105357 22.5196 0.292893 22.7071C0.48043 22.8946 0.734784 23 1 23C1.26522 23 1.51957 22.8946 1.70711 22.7071C1.89464 22.5196 2 22.2652 2 22V19.0187C3.93375 21.2 7.32625 24 12 24C17.3525 24 20.5725 20.8413 20.7087 20.7075C20.8954 20.5201 21.0002 20.2664 21.0002 20.0019Z" fill="#22C55E"/>
<path d="M23.0018 1C22.7366 1 22.4822 1.10536 22.2947 1.29289C22.1072 1.48043 22.0018 1.73478 22.0018 2V4.98125C20.0681 2.8 16.6756 0 12.0018 0C6.64931 0 3.42931 3.15875 3.29431 3.2925C3.10634 3.47981 3.00047 3.73412 3 3.99948C2.99953 4.26485 3.1045 4.51953 3.29181 4.7075C3.47912 4.89547 3.73343 5.00134 3.99879 5.00181C4.26415 5.00228 4.51884 4.89731 4.70681 4.71C4.73431 4.6825 7.50181 2 12.0018 2C16.3768 2 19.5318 5.08125 21.0718 7H17.0018C16.7366 7 16.4822 7.10536 16.2947 7.29289C16.1072 7.48043 16.0018 7.73478 16.0018 8C16.0018 8.26522 16.1072 8.51957 16.2947 8.70711C16.4822 8.89464 16.7366 9 17.0018 9H23.0018C23.267 9 23.5214 8.89464 23.7089 8.70711C23.8965 8.51957 24.0018 8.26522 24.0018 8V2C24.0018 1.73478 23.8965 1.48043 23.7089 1.29289C23.5214 1.10536 23.267 1 23.0018 1Z" fill="#DC2626"/>
</g>
<defs>
<clipPath id="clip0_939_7985">
<rect width="24.0018" height="24" fill="white"/>
</clipPath>
</defs>
</svg>
