<svg width="24" height="25" viewBox="0 0 24 25" fill="none" xmlns="http://www.w3.org/2000/svg">
<path d="M21.6489 20.3756C20.2211 17.9072 18.0208 16.1372 15.4529 15.2981C16.7231 14.542 17.7099 13.3898 18.2619 12.0185C18.8139 10.6473 18.9004 9.13272 18.5083 7.70749C18.1162 6.28226 17.2671 5.02515 16.0914 4.12921C14.9156 3.23327 13.4783 2.74805 12.0001 2.74805C10.5219 2.74805 9.08463 3.23327 7.90891 4.12921C6.73318 5.02515 5.88406 6.28226 5.49195 7.70749C5.09984 9.13272 5.18641 10.6473 5.73837 12.0185C6.29033 13.3898 7.27716 14.542 8.54732 15.2981C5.97951 16.1362 3.77919 17.9062 2.35138 20.3756C2.29902 20.461 2.26429 20.556 2.24924 20.655C2.23419 20.754 2.23912 20.855 2.26375 20.9521C2.28837 21.0492 2.33219 21.1404 2.39262 21.2202C2.45305 21.3001 2.52887 21.367 2.61559 21.4171C2.70232 21.4672 2.7982 21.4995 2.89758 21.5119C2.99695 21.5243 3.09782 21.5167 3.19421 21.4896C3.29061 21.4624 3.38059 21.4162 3.45884 21.3537C3.53709 21.2912 3.60203 21.2136 3.64982 21.1256C5.41607 18.0731 8.53794 16.2506 12.0001 16.2506C15.4623 16.2506 18.5842 18.0731 20.3504 21.1256C20.3982 21.2136 20.4632 21.2912 20.5414 21.3537C20.6197 21.4162 20.7097 21.4624 20.806 21.4896C20.9024 21.5167 21.0033 21.5243 21.1027 21.5119C21.2021 21.4995 21.2979 21.4672 21.3847 21.4171C21.4714 21.367 21.5472 21.3001 21.6076 21.2202C21.6681 21.1404 21.7119 21.0492 21.7365 20.9521C21.7611 20.855 21.7661 20.754 21.751 20.655C21.736 20.556 21.7012 20.461 21.6489 20.3756ZM6.75013 9.5006C6.75013 8.46225 7.05804 7.44721 7.63492 6.58385C8.21179 5.7205 9.03173 5.04759 9.99104 4.65023C10.9504 4.25287 12.006 4.1489 13.0244 4.35147C14.0428 4.55405 14.9782 5.05406 15.7124 5.78829C16.4467 6.52251 16.9467 7.45797 17.1493 8.47637C17.3518 9.49477 17.2479 10.5504 16.8505 11.5097C16.4531 12.469 15.7802 13.2889 14.9169 13.8658C14.0535 14.4427 13.0385 14.7506 12.0001 14.7506C10.6082 14.7491 9.27371 14.1955 8.28947 13.2113C7.30522 12.227 6.75162 10.8925 6.75013 9.5006Z" fill="white"/>
</svg>
