<svg width="50" height="19" viewBox="0 0 50 19" fill="none" xmlns="http://www.w3.org/2000/svg">
<path d="M18.3844 17.9242C18.3844 17.455 17.5216 17.6382 17.5216 17.0024C17.5216 16.6094 17.8511 16.4941 18.1353 16.4941C18.3082 16.4941 18.6171 16.5394 18.6171 16.6855C18.6171 16.739 18.5801 16.8357 18.4998 16.8357C18.4277 16.8357 18.3597 16.7349 18.1332 16.7349C17.9396 16.7349 17.8017 16.809 17.8017 16.9756C17.8017 17.3686 18.6645 17.1896 18.6645 17.8954C18.6645 18.274 18.4092 18.4592 18.0591 18.4592C17.7152 18.4592 17.4722 18.2781 17.4722 18.1464C17.4722 18.0826 17.5278 17.9962 17.5937 17.9962C17.6884 17.9962 17.7522 18.2061 18.0467 18.2061C18.2403 18.2061 18.3844 18.1155 18.3844 17.9242Z" fill="white"/>
<path d="M19.3091 17.8641V17.0925C19.3091 16.6624 19.5665 16.502 19.9042 16.502C20.2378 16.502 20.5014 16.6645 20.5014 17.0925V17.8641C20.5014 18.2941 20.2378 18.4546 19.9042 18.4546C19.5665 18.4546 19.3091 18.2921 19.3091 17.8641ZM20.2193 17.0925C20.2193 16.86 20.0999 16.7509 19.9042 16.7509C19.7045 16.7509 19.5912 16.86 19.5912 17.0925V17.8641C19.5912 18.0966 19.7045 18.2057 19.9042 18.2057C20.0999 18.2057 20.2193 18.0966 20.2193 17.8641V17.0925Z" fill="white"/>
<path d="M21.2261 16.5945C21.2261 16.5328 21.2899 16.502 21.3517 16.502H22.2825C22.3463 16.502 22.3731 16.5657 22.3731 16.6234C22.3731 16.6933 22.3422 16.7509 22.2825 16.7509H21.5082V17.3579H21.9201C21.9777 17.3579 22.0107 17.4114 22.0107 17.4711C22.0107 17.5225 21.9839 17.5801 21.9201 17.5801H21.5082V18.3456C21.5082 18.4094 21.4402 18.4382 21.3682 18.4382C21.2982 18.4382 21.2281 18.4094 21.2281 18.3456L21.2261 16.5945Z" fill="white"/>
<path d="M24.0127 16.502C24.0765 16.502 24.1053 16.5657 24.1053 16.6275C24.1053 16.6954 24.0744 16.7592 24.0127 16.7592H23.6049V18.3456C23.6049 18.4073 23.5328 18.4382 23.4649 18.4382C23.3928 18.4382 23.3248 18.4073 23.3248 18.3456V16.7592H22.913C22.8553 16.7592 22.8203 16.6974 22.8203 16.6295C22.8203 16.5678 22.8491 16.502 22.913 16.502H24.0127Z" fill="white"/>
<path d="M26.22 18.36C26.1994 18.4238 26.117 18.4546 26.0388 18.4546C25.9605 18.4546 25.8802 18.4217 25.8637 18.36L25.6619 17.5596L25.4601 18.36C25.4436 18.4238 25.3613 18.4546 25.283 18.4546C25.2027 18.4546 25.1244 18.4217 25.1059 18.36L24.5787 16.6419C24.5767 16.6336 24.5767 16.6254 24.5767 16.6151C24.5767 16.5493 24.6714 16.502 24.7517 16.502C24.797 16.502 24.8403 16.5205 24.8505 16.5596L25.2851 18.0699L25.5239 17.1213C25.5363 17.0637 25.596 17.039 25.664 17.039C25.7278 17.039 25.7855 17.0637 25.8019 17.1213L26.0429 18.0699L26.4753 16.5596C26.4856 16.5205 26.5289 16.502 26.5742 16.502C26.6545 16.502 26.7492 16.5493 26.7492 16.6151C26.7492 16.6254 26.7492 16.6336 26.7472 16.6419L26.22 18.36Z" fill="white"/>
<path d="M27.1201 18.3218C27.1201 18.3136 27.1201 18.3054 27.1222 18.2971L27.6494 16.579C27.67 16.5152 27.7482 16.4844 27.8265 16.4844C27.9047 16.4844 27.985 16.5173 28.0077 16.579L28.5328 18.2971C28.5349 18.3054 28.539 18.3136 28.539 18.3218C28.539 18.3877 28.4401 18.4391 28.3619 18.4391C28.3166 18.4391 28.2795 18.4226 28.2672 18.3815L28.158 18.005H27.5031L27.394 18.3815C27.3816 18.4247 27.3446 18.4391 27.2952 18.4391C27.219 18.4391 27.1201 18.3918 27.1201 18.3218ZM28.0942 17.7786L27.8285 16.8691L27.5629 17.7786H28.0942Z" fill="white"/>
<path d="M29.1465 16.5905C29.1465 16.5432 29.1836 16.5 29.2392 16.5H29.7437C30.0773 16.5 30.3532 16.6296 30.3532 17.0412C30.3532 17.356 30.1906 17.5123 29.9784 17.5658L30.3491 18.2634C30.3574 18.2757 30.3594 18.2922 30.3594 18.3025C30.3594 18.3745 30.2688 18.4465 30.1906 18.4465C30.1432 18.4465 30.1061 18.4156 30.0793 18.3642L29.6922 17.607H29.4245V18.3457C29.4245 18.4074 29.3545 18.4383 29.2845 18.4383C29.2144 18.4383 29.1465 18.4074 29.1465 18.3457V16.5905ZM29.4245 16.751V17.3807H29.7437C29.9434 17.3807 30.0732 17.2963 30.0732 17.0658C30.0732 16.8354 29.9434 16.751 29.7437 16.751H29.4245Z" fill="white"/>
<path d="M31.3089 17.3579H31.7166C31.7743 17.3579 31.8093 17.4114 31.8093 17.4711C31.8093 17.5225 31.7805 17.5801 31.7166 17.5801H31.3089V18.1892H32.0976C32.1553 18.1892 32.1903 18.2468 32.1903 18.3168C32.1903 18.3744 32.1614 18.4382 32.0976 18.4382H31.1524C31.0906 18.4382 31.0288 18.4073 31.0288 18.3456V16.5945C31.0288 16.5328 31.0926 16.502 31.1524 16.502H32.0976C32.1614 16.502 32.1903 16.5657 32.1903 16.6234C32.1903 16.6933 32.1553 16.7509 32.0976 16.7509H31.3089V17.3579Z" fill="white"/>
<path d="M48.2549 5.35511C48.1601 5.29955 48.086 5.22342 48.0325 5.12671C47.9789 5.03 47.9521 4.92095 47.9521 4.80161C47.9521 4.68227 47.9789 4.57321 48.0325 4.47856C48.086 4.38186 48.1581 4.30778 48.2528 4.25223C48.3475 4.19667 48.4526 4.16992 48.5699 4.16992C48.6873 4.16992 48.7923 4.19873 48.885 4.25428C48.9777 4.30984 49.0518 4.38597 49.1033 4.48268C49.1548 4.57939 49.1816 4.68844 49.1816 4.80778C49.1816 4.92507 49.1548 5.03412 49.1033 5.13083C49.0518 5.22754 48.9777 5.30367 48.885 5.35922C48.7923 5.41478 48.6873 5.44153 48.5699 5.44153C48.4526 5.44153 48.3496 5.41272 48.2549 5.35511ZM48.8212 5.2584C48.8974 5.21313 48.9592 5.14935 49.0024 5.0691C49.0456 4.98885 49.0683 4.90037 49.0683 4.80367C49.0683 4.70902 49.0456 4.62054 49.0024 4.54029C48.9571 4.46005 48.8974 4.39626 48.8212 4.34893C48.745 4.30161 48.6606 4.27898 48.5699 4.27898C48.4752 4.27898 48.3887 4.30161 48.3125 4.34893C48.2363 4.39626 48.1766 4.46005 48.1334 4.53823C48.0901 4.61848 48.0675 4.7049 48.0675 4.79955C48.0675 4.89626 48.0901 4.98474 48.1334 5.06498C48.1766 5.14523 48.2384 5.20696 48.3146 5.25428C48.3908 5.30161 48.4773 5.32424 48.5699 5.32424C48.6606 5.3263 48.745 5.30367 48.8212 5.2584ZM48.3063 4.45181H48.5782C48.6647 4.45181 48.7285 4.47033 48.7738 4.50531C48.8191 4.54029 48.8397 4.59379 48.8397 4.66169C48.8397 4.72959 48.8315 4.77898 48.8171 4.81395C48.8026 4.84688 48.7738 4.87568 48.7326 4.89626L48.85 5.15758H48.6811L48.5823 4.92095H48.467V5.15758H48.3063V4.45181ZM48.5782 4.79749C48.6152 4.79749 48.642 4.78926 48.6585 4.77075C48.675 4.75223 48.6832 4.72548 48.6832 4.68638C48.6832 4.61437 48.642 4.57733 48.5617 4.57733H48.4649V4.79544H48.5782V4.79749Z" fill="white"/>
<path d="M0.820801 4.16797H3.95713L7.63711 10.5116C7.63711 10.5116 7.81215 10.8511 8.05927 10.8511C8.30844 10.8511 8.47731 10.5116 8.47731 10.5116L12.1841 4.16797H15.3616L10.8723 12.0301C10.8723 12.0301 10.03 13.7791 8.09222 13.7791C6.15441 13.7791 5.24419 12.0301 5.24419 12.0301L0.820801 4.16797Z" fill="white"/>
<path d="M26.111 4.1543H19.2185C17.4908 4.1543 16.0884 5.55553 16.0884 7.28187V10.6502C16.0884 12.3765 17.4908 13.7778 19.2185 13.7778H26.1131C27.8408 13.7778 29.2432 12.3765 29.2432 10.6502V7.28187C29.2412 5.55347 27.8408 4.1543 26.111 4.1543ZM26.4488 10.037C26.4488 10.7489 25.8722 11.3251 25.1596 11.3251H20.174C19.4615 11.3251 18.8849 10.7489 18.8849 10.037V7.84565C18.8849 7.13372 19.4615 6.55759 20.174 6.55759H25.1617C25.8742 6.55759 26.4508 7.13372 26.4508 7.84565L26.4488 10.037Z" fill="white"/>
<path d="M44.2824 4.1543H35.1782V13.7778H44.2824C46.0102 13.7778 47.4126 12.3765 47.4126 10.6502V7.28187C47.4126 5.55347 46.0122 4.1543 44.2824 4.1543ZM44.6202 10.037C44.6202 10.7489 44.0435 11.3251 43.331 11.3251H37.9706V6.55759H43.331C44.0435 6.55759 44.6202 7.13372 44.6202 7.84565V10.037Z" fill="white"/>
<path d="M33.3745 4.13477H30.6089V13.7582H33.3745V4.13477Z" fill="white"/>
<path d="M29.7563 0.541016H34.223L32.8433 2.9546C32.8433 2.9546 32.5838 3.49163 31.9886 3.49163C31.3935 3.49163 31.1134 2.9546 31.1134 2.9546L29.7563 0.541016Z" fill="white"/>
</svg>
